<?xml version="1.0" standalone="no"?>
<!DOCTYPE svg PUBLIC "-//W3C//DTD SVG 1.1//EN" "http://www.w3.org/Graphics/SVG/1.1/DTD/svg11.dtd" >
<svg xmlns="http://www.w3.org/2000/svg" xmlns:xlink="http://www.w3.org/1999/xlink" version="1.1">
<metadata>
Created by FontForge 20170731 at Mon May 12 09:55:31 2014
 By Aleksey,,,
Copyright (c) 2014 by Antonio Rodrigues Jr. All rights reserved.
</metadata>
<defs>
<font id="BerlinBold" horiz-adv-x="510" >
  <font-face 
    font-family="Berlin Bold"
    font-weight="700"
    font-stretch="normal"
    units-per-em="1000"
    panose-1="2 0 8 6 0 0 0 2 0 4"
    ascent="750"
    descent="-250"
    x-height="499"
    cap-height="700"
    bbox="-67 -230 884 901"
    underline-thickness="50"
    underline-position="-150"
    unicode-range="U+0020-2212"
  />
<missing-glyph horiz-adv-x="252" 
 />
    <glyph glyph-name=".notdef" horiz-adv-x="252" 
 />
    <glyph glyph-name=".null" horiz-adv-x="0" 
 />
    <glyph glyph-name="nonmarkingreturn" horiz-adv-x="252" 
 />
    <glyph glyph-name="space" unicode=" " horiz-adv-x="252" 
 />
    <glyph glyph-name="space" unicode="&#xa0;" horiz-adv-x="252" 
 />
    <glyph glyph-name="exclam" unicode="!" horiz-adv-x="159" 
d="M20 58q0 27 16.5 44t42.5 17t43 -17t17 -44q0 -26 -17 -42t-43 -16t-42.5 16t-16.5 42zM134 196h-110v503h110v-503z" />
    <glyph glyph-name="quotedbl" unicode="&#x22;" horiz-adv-x="236" 
d="M208 437h-77l-10 264h95zM105 437h-77l-8 264h94z" />
    <glyph glyph-name="numbersign" unicode="#" horiz-adv-x="461" 
d="M208 0l25 118h-59l-23 -118h-86l21 118h-66v88h84q2 11 6 29t12 58h-102v89h122l23 116h87l-22 -116h57l22 116h89l-25 -116h68v-89h-85l-16 -82q-1 -1 -1 -2v-1v-2h102v-88h-119q-1 -6 -2.5 -13t-4 -20t-7 -33.5t-10.5 -51.5h-90zM270 293h-59l-18 -87h57z" />
    <glyph glyph-name="dollar" unicode="$" horiz-adv-x="511" 
d="M485 172q0 -71 -46 -113.5t-124 -53.5v-98h-98v96q-57 5 -104.5 31.5t-92.5 78.5l79 75q27 -34 56 -55.5t62 -28.5v159q-31 9 -60.5 22t-52 33.5t-36 50t-13.5 70.5q0 28 8.5 55t27.5 49t50 37.5t76 21.5v98h98v-98q52 -8 95 -34t81 -73l-79 -68q-42 59 -97 74v-147
q32 -9 62.5 -23.5t54.5 -36t38.5 -51.5t14.5 -71zM377 163q0 29 -17.5 45t-44.5 27v-131q29 7 45.5 22t16.5 37zM163 447q0 -24 14 -38t40 -25v118q-29 -7 -41.5 -21t-12.5 -34z" />
    <glyph glyph-name="uni0025" unicode="%" 
d="M400 109q0 15 -7 25.5t-24 10.5t-23 -10t-6 -26q0 -14 6 -23.5t23 -9.5t24 9.5t7 23.5zM483 109q0 -45 -29 -77t-85 -32q-27 0 -48 8.5t-35.5 23.5t-22.5 35t-8 42q0 47 30 78.5t84 31.5q56 0 85 -32t29 -78zM126 0h-106l364 702h106zM182 593q0 15 -7.5 25.5t-24.5 10.5
t-23.5 -10.5t-6.5 -25.5q0 -14 6.5 -23.5t23.5 -9.5t24.5 9.5t7.5 23.5zM264 593q0 -45 -29 -77t-85 -32q-26 0 -47 8.5t-36 23.5t-23 35t-8 42q0 47 30.5 78t83.5 31q56 0 85 -31.5t29 -77.5z" />
    <glyph glyph-name="ampersand" unicode="&#x26;" horiz-adv-x="602" 
d="M582 63l-87 -72l-57 69q-81 -63 -195 -63q-95 0 -161 58q-62 59 -62 146q0 122 145 207q-31 42 -46.5 73.5t-15.5 59.5q0 67 51 114q24 20 56.5 32.5t70.5 12.5q37 0 67 -11.5t53 -32.5q47 -45 47 -111q0 -51 -30.5 -91t-90.5 -78q15 -18 28 -34l26 -32t27 -32.5
t30 -36.5q7 17 12.5 42t6.5 58h107q-5 -59 -17.5 -105t-34.5 -87zM265 461q33 19 53 38t20 45q0 29 -18 46t-44 17t-44.5 -16.5t-18.5 -42.5q0 -13 10 -30.5t27 -39.5zM227 321q-47 -29 -69.5 -55t-22.5 -59q0 -46 31 -78q31 -34 79 -34q73 0 129 48z" />
    <glyph glyph-name="quotesingle" unicode="'" horiz-adv-x="133" 
d="M105 436h-78l-7 264h93z" />
    <glyph glyph-name="parenleft" unicode="(" horiz-adv-x="306" 
d="M181 -99q-29 36 -57.5 81t-51.5 99t-37.5 118t-14.5 139t14.5 141.5t37.5 123.5t51.5 104t57.5 83h105q-36 -45 -67 -97.5t-54.5 -110t-36.5 -119.5t-13 -125t13 -122t36.5 -114t54.5 -105.5t67 -95.5h-105z" />
    <glyph glyph-name="parenright" unicode=")" horiz-adv-x="306" 
d="M20 -99q36 45 67 95.5t54.5 105.5t36.5 114t13 122t-13 125t-36.5 119.5t-54.5 110t-67 97.5h105q29 -36 57.5 -83t51.5 -104t37.5 -123.5t14.5 -141.5t-14.5 -139t-37.5 -118t-51.5 -99t-57.5 -81h-105z" />
    <glyph glyph-name="asterisk" unicode="*" horiz-adv-x="396" 
d="M265 500q18 -23 37.5 -49t35.5 -46l-64 -48l-76 95l-74 -93l-65 45l68 99l-107 40l26 75l110 -37v121h83l1 -121l113 36l23 -76z" />
    <glyph glyph-name="plus" unicode="+" horiz-adv-x="484" 
d="M197 31v177h-177v88h177v179h88v-179h179v-88h-179v-177h-88z" />
    <glyph glyph-name="comma" unicode="," horiz-adv-x="206" 
d="M20 -134l69 264h97l-74 -264h-92z" />
    <glyph glyph-name="hyphen" unicode="-" horiz-adv-x="262" 
d="M20 206v91h222v-91h-222z" />
    <glyph glyph-name="period" unicode="." horiz-adv-x="167" 
d="M20 63q0 27 17.5 45.5t45.5 18.5q27 0 45.5 -18.5t18.5 -45.5q0 -28 -18.5 -45.5t-45.5 -17.5q-28 0 -45.5 17.5t-17.5 45.5z" />
    <glyph glyph-name="slash" unicode="/" horiz-adv-x="396" 
d="M20 0l263 685h93l-263 -685h-93z" />
    <glyph glyph-name="zero" unicode="0" horiz-adv-x="556" 
d="M278 -8q-57 0 -104 24.5t-81.5 71t-53.5 112t-19 148.5q0 81 19 147.5t53.5 113t81.5 72t104 25.5t104 -25.5t81.5 -72t53.5 -113t19 -147.5q0 -83 -19 -148.5t-53.5 -112t-81.5 -71t-104 -24.5zM278 89q33 0 61.5 18t49 52t32.5 81.5t12 107.5t-12 107.5t-32.5 80.5
t-49 51t-61.5 18q-35 0 -64 -18t-50 -51t-33 -80.5t-12 -107.5t12 -107.5t33 -81.5t50 -52t64 -18z" />
    <glyph glyph-name="one" unicode="1" horiz-adv-x="141" 
d="M20 0v666l101 37v-703h-101z" />
    <glyph glyph-name="two" unicode="2" horiz-adv-x="496" 
d="M32 98l207 218v-1q17 19 36 41.5t35.5 45.5t27 47t10.5 46q0 46 -31 78.5t-86 32.5q-42 0 -73 -26.5t-47 -73.5l-91 74q32 60 88 96.5t123 36.5q52 0 93.5 -16.5t70.5 -45.5t44.5 -70t15.5 -89q0 -33 -12.5 -65.5t-31 -63t-41 -58t-43.5 -49.5l-92 -100l-49 -54h290v-102
h-444v98z" />
    <glyph glyph-name="three" unicode="3" horiz-adv-x="500" 
d="M480 198q0 -50 -19.5 -88.5t-52.5 -64t-77 -38.5t-93 -13q-65 0 -115.5 23t-102.5 74l83 69q29 -38 64 -54.5t71 -16.5q63 0 100 29t37 80q0 56 -45 89.5t-126 33.5h-40v101h42q60 0 99.5 24.5t39.5 72.5q0 38 -31.5 62.5t-78.5 24.5q-42 0 -71.5 -16t-57.5 -49l-79 65
q45 48 92.5 71.5t114.5 23.5q46 0 85.5 -11.5t68.5 -34t46 -56.5t17 -79q0 -47 -20.5 -82.5t-54.5 -57.5q45 -23 74.5 -71t29.5 -111z" />
    <glyph glyph-name="four" unicode="4" horiz-adv-x="511" 
d="M331 1v182h-311v74l327 447h86v-418h58v-103h-58v-182h-102zM331 286v57t-0.5 54t-0.5 55.5v61.5l-164 -228h165z" />
    <glyph glyph-name="five" unicode="5" horiz-adv-x="503" 
d="M483 241q0 -46 -18 -90t-50 -78.5t-76.5 -55.5t-98.5 -21q-66 0 -117.5 24.5t-102.5 73.5l80 71q29 -38 65.5 -52.5t74.5 -14.5q30 0 56 11t45 30t30 44t11 54q0 33 -12 61.5t-34.5 49.5t-53.5 32.5t-70 11.5q-13 0 -31.5 -1.5t-38.5 -4.5t-41 -7.5t-39 -10.5l33 337h338
v-103h-250q-1 -16 -2 -28.5t-2 -25.5t-2 -26.5t-3 -30.5q14 1 27.5 1h24.5q52 0 98.5 -16t82 -47.5t56 -78.5t20.5 -109z" />
    <glyph glyph-name="six" unicode="6" horiz-adv-x="509" 
d="M20 281q0 67 19 136t62.5 128.5t115 104t175.5 63.5l29 -91q-114 -26 -176.5 -77t-91.5 -119q27 14 57.5 20.5t70.5 6.5t77.5 -17t66.5 -47t46.5 -72t17.5 -92t-16.5 -92t-46.5 -73t-72.5 -48.5t-95.5 -17.5q-57 0 -101.5 23.5t-74.5 63t-46 91.5t-16 109zM124 267
q0 -33 9.5 -65t27 -56.5t43 -40t57.5 -15.5q59 0 92.5 37t33.5 94q0 28 -9 52t-24.5 41.5t-37 27.5t-45.5 10q-42 0 -78.5 -16t-65.5 -43q-1 -6 -2 -13t-1 -13z" />
    <glyph glyph-name="seven" unicode="7" horiz-adv-x="458" 
d="M438 629l-111 -202q-26 -48 -51.5 -99.5t-45.5 -102.5t-32.5 -98.5t-12.5 -86.5v-40h-101v38q0 48 8 92t25 90.5t43 98.5t61 117v-1q10 20 20 37.5t20 36.5t21.5 40.5t26.5 50.5h-289v103h418v-74z" />
    <glyph glyph-name="eight" unicode="8" horiz-adv-x="526" 
d="M20 198q0 63 29 112t74 72q-34 22 -54.5 57.5t-20.5 82.5q0 45 17 79t46 56.5t69 34t85 11.5h4q36 0 66 -9h-1q64 -16 103.5 -58.5t39.5 -113.5q0 -47 -20.5 -82.5t-54.5 -57.5q45 -23 74.5 -72t29.5 -112q0 -45 -16 -80.5t-43 -60.5t-64 -40.5t-79 -19.5l-13 -2
q-2 0 -4 -0.5t-4 -0.5h-32l-30 3q-42 4 -78.5 19.5t-64 40.5t-43 60.5t-15.5 80.5zM399 198q0 50 -36 84t-100 39q-66 -5 -101.5 -38.5t-35.5 -84.5q0 -14 4 -29t9 -26q23 -24 56.5 -38t65.5 -14q35 0 70 14.5t58 40.5q10 22 10 52zM259 605q-45 -2 -76 -24.5t-31 -59.5
q0 -42 31.5 -66t79.5 -29q47 5 78.5 29t31.5 66q0 37 -32.5 60.5t-79.5 23.5h-2z" />
    <glyph glyph-name="nine" unicode="9" horiz-adv-x="509" 
d="M489 426q0 -68 -19 -136.5t-62.5 -128t-115 -104t-175.5 -63.5l-29 91q114 26 176.5 77t91.5 119q-27 -14 -57.5 -20.5t-70.5 -6.5t-77.5 17t-66.5 47t-46.5 72t-17.5 92q0 49 16.5 91.5t46.5 73.5t72.5 48.5t95.5 17.5q57 0 101.5 -23.5t74.5 -63t46 -91.5t16 -109z
M385 440q0 33 -9.5 65t-27 56.5t-43 40t-57.5 15.5q-59 0 -92.5 -37t-33.5 -94q0 -28 9 -52t24.5 -41.5t37 -27.5t45.5 -10q42 0 78.5 16t65.5 43q1 6 2 13t1 13z" />
    <glyph glyph-name="colon" unicode=":" horiz-adv-x="167" 
d="M20 63q0 27 17.5 45.5t45.5 18.5q27 0 45.5 -18.5t18.5 -45.5q0 -28 -18.5 -45.5t-45.5 -17.5q-28 0 -45.5 17.5t-17.5 45.5zM20 435q0 27 17.5 45.5t45.5 18.5q27 0 45.5 -18.5t18.5 -45.5q0 -28 -18.5 -45.5t-45.5 -17.5q-28 0 -45.5 17.5t-17.5 45.5z" />
    <glyph glyph-name="semicolon" unicode=";" horiz-adv-x="215" 
d="M20 -142l73 264h97l-74 -264h-96zM68 435q0 27 17.5 45.5t45.5 18.5q27 0 45.5 -18.5t18.5 -45.5q0 -28 -18.5 -45.5t-45.5 -17.5q-28 0 -45.5 17.5t-17.5 45.5z" />
    <glyph glyph-name="less" unicode="&#x3c;" horiz-adv-x="299" 
d="M165 60l-145 174l145 174h114l-135 -174l5 -6l-1 1l20 -25l-1 1q23 -27 52 -63.5t58 -81.5h-112z" />
    <glyph glyph-name="equal" unicode="=" horiz-adv-x="459" 
d="M20 131v96h419v-96h-419zM20 310v99h419v-99h-419z" />
    <glyph glyph-name="greater" unicode="&#x3e;" horiz-adv-x="299" 
d="M20 60l135 173q-5 5 -8.5 10t-7.5 10l-35 43l-84 112h114l145 -174l-145 -174h-114z" />
    <glyph glyph-name="question" unicode="?" horiz-adv-x="425" 
d="M144 63q0 25 17 43t45 18q26 0 44 -18t18 -43q0 -28 -18 -45.5t-44 -17.5q-28 0 -45 17.5t-17 45.5zM255 144h-98l-2 240q38 24 65.5 42t45 34t25.5 32t8 36q0 39 -25 58.5t-63 19.5q-33 0 -60 -16.5t-55 -51.5l-76 75q45 46 90 69t107 23q36 0 70 -10.5t60.5 -32.5
t42 -55t15.5 -79q0 -32 -14 -61t-35.5 -55t-48.5 -48.5t-52 -40.5v-179z" />
    <glyph glyph-name="at" unicode="@" horiz-adv-x="673" 
d="M402 307q-17 7 -35 10t-36 3q-13 0 -26 -2t-23 -7.5t-16.5 -13.5t-6.5 -20q0 -20 16 -31t44 -11q21 0 44 13.5t39 31.5v27zM653 363q0 -45 -9 -80t-24 -60.5t-35 -41.5t-42 -23l40 -60q-52 -51 -114 -74.5t-134 -23.5q-77 0 -135.5 25.5t-98.5 71t-60.5 108.5t-20.5 137
q0 67 20 128.5t60 108t99 74.5t136 28q71 0 129.5 -22.5t100.5 -64t65 -100.5t23 -131zM497 244q0 -6 8 -6q9 0 18 5.5t15.5 19.5t11 37t4.5 59q0 57 -16 100.5t-44.5 73t-69 45t-89.5 15.5q-54 0 -95 -20.5t-68 -55t-41 -80t-14 -96.5q0 -54 13.5 -99.5t41 -79t69 -52.5
t97.5 -19q50 0 91.5 13t80.5 48h-7q-25 0 -47 9t-36 23q-50 -39 -110 -39q-64 0 -104.5 35.5t-40.5 95.5q0 35 12.5 60t34 41.5t50 24t59.5 7.5q20 0 41.5 -2.5t39.5 -7.5v9q0 27 -18.5 42t-52.5 15q-20 0 -43 -13t-49 -45l-65 72q30 38 70.5 58t88.5 20q75 0 119.5 -36.5
t44.5 -105.5v-171z" />
    <glyph glyph-name="A" unicode="A" horiz-adv-x="642" 
d="M431 201h-220l-71 -201h-120l250 700h102l250 -700h-120zM249 308h143q-10 29 -18.5 52t-16.5 45.5t-16.5 46.5t-19.5 56z" />
    <glyph glyph-name="B" unicode="B" horiz-adv-x="552" 
d="M20 0v700h278q40 0 76 -15.5t62.5 -42.5t42 -63t15.5 -76q0 -35 -13.5 -68.5t-35.5 -59.5q41 -28 64 -72t23 -96q0 -43 -16.5 -81t-45 -66t-66.5 -44t-81 -16h-303zM128 108h196q21 0 39.5 9t32.5 23.5t22 34t8 40.5q0 42 -30 67.5t-72 25.5h-196v-200zM128 592v-176h171
q37 0 62.5 25.5t25.5 62.5q0 38 -25.5 63t-62.5 25h-171z" />
    <glyph glyph-name="C" unicode="C" horiz-adv-x="612" 
d="M20 354q0 69 18.5 133t57 113.5t97.5 79t139 29.5q85 0 147.5 -34t112.5 -93l-79 -70q-43 53 -86.5 71t-92.5 18q-53 0 -92 -20.5t-64.5 -55t-37.5 -79.5t-12 -93t12 -93t37.5 -80t64.5 -56t92 -21q49 0 93 19.5t86 72.5l79 -70q-49 -59 -112 -94t-148 -35
q-80 0 -139 30.5t-97.5 80.5t-57 114.5t-18.5 132.5z" />
    <glyph glyph-name="D" unicode="D" horiz-adv-x="636" 
d="M616 352q0 -73 -21 -137t-63.5 -112t-105.5 -75.5t-147 -27.5h-259v700h259q87 0 150.5 -28t105 -75.5t61.5 -110.5t20 -134zM506 351q0 114 -62 177.5t-169 63.5h-147v-484h147q58 0 101 17.5t72 49t43.5 76.5t14.5 100z" />
    <glyph glyph-name="E" unicode="E" horiz-adv-x="475" 
d="M20 0v700h432v-108h-324v-175h295v-108h-295v-201h327v-108h-435z" />
    <glyph glyph-name="F" unicode="F" horiz-adv-x="472" 
d="M20 0v700h432v-108h-324v-175h295v-108h-295v-309h-108z" />
    <glyph glyph-name="G" unicode="G" horiz-adv-x="625" 
d="M600 111q-45 -52 -104 -83.5t-144 -31.5q-80 0 -142 30.5t-104 80.5t-64 114.5t-22 132.5q0 69 18.5 133t57 113.5t97.5 79t139 29.5q85 0 147.5 -34t112.5 -93l-79 -70q-43 53 -87 71t-92 18q-53 0 -92 -20.5t-64.5 -55t-37.5 -79.5t-12 -93t15.5 -93t44.5 -80t71 -56
t95 -21q41 0 76.5 10.5t66.5 38.5v157h-188v108h296v-294z" />
    <glyph glyph-name="H" unicode="H" horiz-adv-x="545" 
d="M417 0v309h-289v-309h-108v700h108v-283h289v283h108v-700h-108z" />
    <glyph glyph-name="I" unicode="I" horiz-adv-x="148" 
d="M20 0v700h108v-700h-108z" />
    <glyph glyph-name="J" unicode="J" horiz-adv-x="460" 
d="M440 700v-486q0 -110 -54 -166t-157 -56q-32 0 -59.5 6.5t-52 21t-48.5 38t-49 56.5l81 76q29 -43 61 -66.5t78 -23.5q50 0 71 31.5t21 83.5v485h108z" />
    <glyph glyph-name="K" unicode="K" horiz-adv-x="586" 
d="M20 0v700h107v-294l294 294h145l-341 -340q40 -42 83.5 -88t87.5 -93t87.5 -92.5t82.5 -86.5h-150l-289 308v-308h-107z" />
    <glyph glyph-name="L" unicode="L" horiz-adv-x="474" 
d="M20 0v700h108v-592h326v-108h-434z" />
    <glyph glyph-name="M" unicode="M" horiz-adv-x="667" 
d="M540 0v476l-206 -336l-209 330v-470h-105v700h83l231 -368l231 368h82v-700h-107z" />
    <glyph glyph-name="N" unicode="N" horiz-adv-x="610" 
d="M502 0l-376 499v-499h-106v700h85l379 -498v498h106v-700h-88z" />
    <glyph glyph-name="O" unicode="O" horiz-adv-x="695" 
d="M566 353q0 49 -13.5 94t-41 79.5t-68.5 54.5t-96 20q-54 0 -95 -20t-68 -54t-41 -79t-14 -95t14 -95t41 -79.5t68 -55t95 -20.5q55 0 96 20t68.5 54.5t41 79.5t13.5 96zM675 354q0 -70 -20.5 -135t-62 -114.5t-103 -79.5t-142.5 -30t-142 30t-102.5 79.5t-62 114.5
t-20.5 135q0 69 20.5 133.5t62 113.5t102.5 78.5t142 29.5t142.5 -29.5t103 -78.5t62 -113.5t20.5 -133.5z" />
    <glyph glyph-name="P" unicode="P" horiz-adv-x="514" 
d="M127 283v-283h-107v700h265q43 0 81 -16.5t66.5 -45t45 -66.5t16.5 -81t-16.5 -81t-45 -66t-66.5 -44.5t-81 -16.5h-158zM127 391h158q21 0 39 7.5t32 21t22 32t8 39.5t-8 39t-22 31.5t-32 22t-39 8.5h-158v-201z" />
    <glyph glyph-name="Q" unicode="Q" horiz-adv-x="695" 
d="M675 354q0 -55 -12.5 -107t-38 -96t-63.5 -78.5t-88 -54.5q10 -14 22.5 -29t24.5 -30t23 -29t19 -25h-126l-69 91q-5 -1 -10 -1h-10q-81 0 -142 30t-102.5 79.5t-62 114.5t-20.5 135q0 69 20.5 133.5t62 113.5t102.5 78.5t142 29.5t142.5 -29.5t103 -78.5t62 -113.5
t20.5 -133.5zM566 353q0 49 -13.5 94t-41 79.5t-68.5 54.5t-96 20q-54 0 -95 -20t-68 -54t-41 -79t-14 -95t14 -95t41 -79.5t68 -55t95 -20.5q55 0 96 20t68.5 54.5t41 79.5t13.5 96z" />
    <glyph glyph-name="R" unicode="R" horiz-adv-x="550" 
d="M253 283h-125v-283h-108v700h266q43 0 80.5 -16.5t66 -45t45 -66.5t16.5 -81q0 -63 -34.5 -114t-87.5 -76l158 -301h-122zM128 391h158q21 0 39 7.5t31.5 21t21.5 32t8 39.5q0 42 -29 71t-71 30h-158v-201z" />
    <glyph glyph-name="S" unicode="S" horiz-adv-x="565" 
d="M435 531q-28 34 -61.5 49t-78.5 15q-58 0 -90.5 -22.5t-32.5 -54.5q0 -20 14.5 -35.5t37.5 -28t50 -23.5t53 -20h-1q29 -10 65.5 -26t69 -41t55 -60t22.5 -83q0 -50 -19 -88.5t-53 -64.5t-79.5 -39.5t-98.5 -13.5q-75 0 -140 32t-128 102l88 72q36 -50 81.5 -73t99.5 -23
q31 0 56.5 6t44 17t29 26t10.5 33q0 25 -15 44t-38 33.5t-52 25t-56 19.5l-24 9q-34 12 -66.5 25.5t-58.5 35t-42 53.5t-16 79q0 37 13 72t41 61.5t72 42.5t106 16q36 0 69 -6t64 -20.5t60.5 -38t58.5 -58.5l-93 -74z" />
    <glyph glyph-name="T" unicode="T" horiz-adv-x="477" 
d="M294 592v-592h-108v592h-166v108h437v-108h-163z" />
    <glyph glyph-name="U" unicode="U" horiz-adv-x="608" 
d="M303 -7q-26 0 -48 3q-49 7 -91 26t-73.5 49.5t-50 72t-20.5 92.5v464h108v-453q0 -36 12.5 -62t33.5 -43.5t49 -27t60 -12.5q5 -1 7.5 -1h5.5h15h5.5t7.5 1q32 3 60.5 12.5t49.5 27t33.5 43.5t12.5 62v453h108v-464q-2 -51 -20.5 -92.5t-50 -72.5t-74 -50t-92.5 -25
l-35 -3h-13v0z" />
    <glyph glyph-name="V" unicode="V" horiz-adv-x="642" 
d="M321 192q45 128 90.5 255t90.5 253h120l-250 -700h-102l-250 700h120z" />
    <glyph glyph-name="W" unicode="W" horiz-adv-x="904" 
d="M688 0h-102l-130 470l-135 -470h-105l-196 700h117l133 -469l131 469h106l130 -469l131 469h116z" />
    <glyph glyph-name="X" unicode="X" horiz-adv-x="663" 
d="M156 0h-136l245 353l-242 347h137l171 -250q43 63 86.5 126.5t85.5 123.5h136l-242 -347q28 -41 59.5 -86t63.5 -91t63.5 -91l59.5 -85h-138l-175 255z" />
    <glyph glyph-name="Y" unicode="Y" horiz-adv-x="653" 
d="M326 448l178 252h129l-252 -372l-1 -328h-108v328l-252 372h129z" />
    <glyph glyph-name="Z" unicode="Z" horiz-adv-x="560" 
d="M170 108h370v-108h-520v94l348 498h-328v108h476v-93z" />
    <glyph glyph-name="bracketleft" unicode="[" horiz-adv-x="197" 
d="M20 -99v854h157v-83h-69v-687h69v-84h-157z" />
    <glyph glyph-name="backslash" unicode="\" horiz-adv-x="396" 
d="M283 0l-263 703h93l263 -703h-93z" />
    <glyph glyph-name="bracketright" unicode="]" horiz-adv-x="197" 
d="M20 -99v84h69v687h-69v83h157v-854h-157z" />
    <glyph glyph-name="asciicircum" unicode="^" horiz-adv-x="318" 
d="M20 571l107 128h65l106 -128h-90l-49 59l-48 -59h-91z" />
    <glyph glyph-name="underscore" unicode="_" horiz-adv-x="540" 
d="M20 -193v88h500v-88h-500z" />
    <glyph glyph-name="grave" unicode="`" horiz-adv-x="232" 
d="M114 587l-94 113h99l93 -113h-98z" />
    <glyph glyph-name="a" unicode="a" horiz-adv-x="455" 
d="M334 206q-24 9 -50.5 11t-54.5 2q-20 0 -39 -3.5t-34.5 -11.5t-25 -22.5t-9.5 -35.5q0 -29 24 -44t68 -15q35 0 67 14t54 43v62zM334 0v24q-28 -20 -61.5 -24.5t-73.5 -4.5q-38 0 -71 9.5t-57 28.5t-37.5 47t-13.5 65q0 43 16 75.5t43 54t63 32t75 10.5q32 0 60.5 -1
t56.5 -9v12q0 44 -28 67.5t-77 23.5q-16 0 -30 -2t-27 -8t-26 -17.5t-28 -29.5l-74 64q39 45 83 66.5t104 21.5q45 0 82.5 -11.5t64.5 -34t42 -56t15 -76.5v-327h-101z" />
    <glyph glyph-name="b" unicode="b" horiz-adv-x="481" 
d="M122 496q20 5 39.5 7.5t39.5 2.5q49 0 96 -14.5t83.5 -45.5t58.5 -79t22 -115q0 -56 -18 -102.5t-52 -80.5t-83 -53t-110 -19q-82 0 -178 30v673h102v-204zM356 251q0 78 -43.5 120t-117.5 42q-17 0 -36 -4t-37 -9v-300q39 -10 82 -10q72 0 112 44.5t40 116.5z" />
    <glyph glyph-name="c" unicode="c" horiz-adv-x="476" 
d="M445 77q-35 -37 -79.5 -58.5t-109.5 -21.5q-62 0 -106.5 21.5t-73 57t-42.5 81.5t-14 95q0 53 15 99.5t44.5 81t73.5 54t102 19.5q61 0 109.5 -25.5t87.5 -68.5l-69 -68q-28 31 -59.5 50t-66.5 19q-36 0 -61.5 -13t-41.5 -34.5t-23.5 -50.5t-7.5 -61q0 -31 7.5 -60.5
t24 -52.5t42.5 -37t62 -14q34 0 68.5 16.5t66.5 51.5l62 -67z" />
    <glyph glyph-name="d" unicode="d" horiz-adv-x="481" 
d="M359 700h102v-673q-96 -30 -178 -30q-61 0 -110 19t-83 53t-52 80.5t-18 102.5q0 67 22 115t58.5 79t83 45.5t96.5 14.5q20 0 39.5 -2.5t39.5 -7.5v204zM125 251q0 -72 40 -116.5t113 -44.5q20 0 40.5 2t40.5 7v301q-18 5 -37 9t-36 4q-74 0 -117.5 -42t-43.5 -120z" />
    <glyph glyph-name="e" unicode="e" horiz-adv-x="490" 
d="M452 73q-34 -38 -80 -57.5t-111 -19.5q-61 0 -106 20.5t-75 55.5t-45 80t-15 95q0 66 18 114.5t49.5 80.5t72.5 47.5t88 15.5q111 0 166.5 -72t55.5 -210h-346q8 -63 44.5 -98.5t96.5 -35.5q36 0 69 15t65 50l64 -68zM248 416q-55 0 -82.5 -28t-37.5 -73h238
q-5 43 -34.5 72t-83.5 29z" />
    <glyph glyph-name="f" unicode="f" horiz-adv-x="290" 
d="M20 501h42q0 37 7 74t23.5 65.5t44 46.5t69.5 18q10 0 26.5 -2.5t37.5 -5.5l-14 -86h-22q-7 2 -13.5 3t-13.5 0q-13 -1 -21.5 -12t-13 -27t-6.5 -35.5t-2 -38.5h81v-95h-81v-406h-102v406h-42v95z" />
    <glyph glyph-name="g" unicode="g" horiz-adv-x="481" 
d="M360 5q-39 -9 -78 -9q-50 0 -97 14.5t-83 45.5t-58 79t-22 115q0 55 18 102t52 81t83 53t110 19q41 0 84.5 -8t91.5 -22v-477q0 -59 -17 -100.5t-47.5 -68t-73 -38.5t-93.5 -12q-64 0 -116 25.5t-94 69.5l68 74q62 -70 144 -70q64 0 96 25.5t32 85.5v16zM126 251
q0 -78 43.5 -120t117.5 -42q17 0 35.5 4t37.5 9v300q-37 10 -81 10q-72 0 -112.5 -44.5t-40.5 -116.5z" />
    <glyph glyph-name="h" unicode="h" horiz-adv-x="466" 
d="M344 0v315q0 50 -28.5 74t-72.5 24q-21 0 -39.5 -9t-33.5 -23t-26.5 -30.5t-20.5 -30.5v-320h-103v700h103v-235q24 20 58 32t76 12q39 0 73.5 -11.5t60 -34.5t40.5 -57t15 -78v-328h-102z" />
    <glyph glyph-name="i" unicode="i" horiz-adv-x="156" 
d="M28 0v500h102v-500h-102zM20 642q0 26 16 42t42 16t42 -16t16 -42t-16 -42t-42 -16t-42 16t-16 42z" />
    <glyph glyph-name="j" unicode="j" horiz-adv-x="266" 
d="M20 -103q62 8 89.5 39t27.5 88v477h102v-480q0 -39 -11 -75.5t-35 -65.5t-61 -48.5t-89 -25.5zM131 642q0 26 15.5 42t41.5 16t42 -16t16 -42t-16 -42t-42 -16t-41.5 16t-15.5 42z" />
    <glyph glyph-name="k" unicode="k" horiz-adv-x="478" 
d="M20 0v700h102v-399l196 199h140l-247 -241l244 -259h-141l-192 211v-211h-102z" />
    <glyph glyph-name="l" unicode="l" horiz-adv-x="141" 
d="M20 0v700h101v-700h-101z" />
    <glyph glyph-name="m" unicode="m" horiz-adv-x="789" 
d="M668 0v315q0 49 -29.5 73t-72.5 25q-25 0 -47 -9t-38.5 -23.5t-26 -31t-9.5 -30.5v-319h-100v315q0 50 -29.5 74t-72.5 24q-22 0 -43.5 -9t-39 -23t-28 -30.5t-10.5 -30.5v-320h-102v501h102v-36q25 20 58.5 32t76.5 12q48 0 89.5 -19t67.5 -55q26 27 66 50t100 24
q39 0 73.5 -11.5t60 -34.5t40.5 -57t15 -78v-328h-101z" />
    <glyph glyph-name="n" unicode="n" horiz-adv-x="465" 
d="M344 0v315q0 50 -29 74t-73 24q-21 0 -42.5 -9t-39 -23t-28 -30.5t-10.5 -30.5v-320h-102v501h102v-36q24 20 58 32t76 12q39 0 73.5 -11.5t60 -34.5t40.5 -57t15 -78v-328h-101z" />
    <glyph glyph-name="o" unicode="o" 
d="M384 248q0 36 -7 66.5t-22.5 53t-40.5 35.5t-60 13t-59 -12.5t-39.5 -35t-22.5 -53t-7 -66.5q0 -35 7 -66t22.5 -53.5t39.5 -35.5t59 -13t60 12.5t40.5 35t22.5 53t7 66.5zM490 247q0 -53 -14.5 -99.5t-44 -81t-74 -54t-103.5 -19.5t-102.5 20t-73 55t-44 82t-14.5 100
q0 54 14.5 100.5t44 81t73 54t102.5 19.5t103.5 -20t74 -55t44 -82t14.5 -101z" />
    <glyph glyph-name="p" unicode="p" horiz-adv-x="486" 
d="M121 -230h-101v705q48 14 92 22t85 8q61 0 110.5 -19t85 -53t54.5 -81t19 -102q0 -67 -23 -115t-60.5 -79t-85.5 -45.5t-97 -14.5q-40 0 -79 9v-235zM356 251q0 72 -40.5 116.5t-112.5 44.5q-43 0 -82 -10v-300q18 -5 37 -9t36 -4q75 0 118.5 42t43.5 120z" />
    <glyph glyph-name="q" unicode="q" horiz-adv-x="480" 
d="M359 5q-39 -9 -79 -9q-50 0 -96.5 14.5t-83 45.5t-58.5 79t-22 115q0 55 18 102t52 81t83 53t110 19q42 0 85.5 -8t91.5 -22v-705h-101v235zM125 251q0 -78 43.5 -120t117.5 -42q17 0 36 4t37 9v300q-39 10 -81 10q-73 0 -113 -44.5t-40 -116.5z" />
    <glyph glyph-name="r" unicode="r" horiz-adv-x="361" 
d="M314 396q-20 8 -39 12.5t-33 4.5q-21 0 -43 -9t-39 -23t-27.5 -30.5t-10.5 -30.5v-320h-102v500h102v-35q24 20 58 32t76 12q15 0 38 -3t47 -10z" />
    <glyph glyph-name="s" unicode="s" horiz-adv-x="425" 
d="M318 361q-20 26 -43.5 39t-55.5 13q-36 0 -51.5 -12.5t-15.5 -31.5q0 -26 28 -40t64 -25q27 -9 54.5 -19.5t50 -28t37 -44t14.5 -65.5q0 -36 -14.5 -64.5t-39.5 -48t-58.5 -29.5t-71.5 -10q-57 0 -104 23.5t-92 75.5l76 70q55 -74 123 -74q41 0 60.5 14t19.5 34
q0 16 -8 27t-21.5 19.5t-31.5 14.5t-37 12q-27 8 -54 18t-48 26.5t-34.5 42t-13.5 64.5q0 70 47.5 108t123.5 38q53 0 96.5 -21t86.5 -74l-72 -69z" />
    <glyph glyph-name="t" unicode="t" horiz-adv-x="290" 
d="M62 407h-42v95h42v118h102v-118h81v-95h-81v-215q0 -20 1.5 -38.5t6 -33t13 -23.5t22.5 -10q7 -1 13.5 0t13.5 3q1 0 11 0.5t11 0.5l14 -86q-21 -4 -37.5 -6.5t-26.5 -2.5q-42 0 -70 16t-44.5 42.5t-23 61.5t-6.5 74v217z" />
    <glyph glyph-name="u" unicode="u" horiz-adv-x="477" 
d="M122 500v-313q0 -25 8.5 -43.5t23.5 -31t35 -18.5t42 -6q47 0 77 18t47 44v350h102v-500h-99v28q-52 -34 -142 -34q-41 0 -76.5 11.5t-62 34t-42 56.5t-15.5 78v326h102z" />
    <glyph glyph-name="v" unicode="v" horiz-adv-x="545" 
d="M320 0h-92l-208 499h111l144 -359l146 359h104z" />
    <glyph glyph-name="w" unicode="w" horiz-adv-x="815" 
d="M620 0h-88l-123 339l-126 -339h-88l-175 499h108l117 -343q30 85 61 172.5t61 170.5h86l123 -342l116 342h103z" />
    <glyph glyph-name="x" unicode="x" horiz-adv-x="539" 
d="M396 0l-130 179q-32 -45 -65 -90.5t-64 -88.5h-117l184 254l-180 246h123l129 -174q31 42 64 87t62 87h116l-180 -248l181 -252h-123z" />
    <glyph glyph-name="y" unicode="y" horiz-adv-x="547" 
d="M75 -103q19 4 44.5 12t48.5 21t39 32.5t17 45.5l-204 492h114l142 -355l141 355h110l-203 -496v1l-17 -45v1q-18 -60 -72 -102.5t-138 -52.5z" />
    <glyph glyph-name="z" unicode="z" horiz-adv-x="428" 
d="M150 99h258v-99h-388v87l238 315h-238v98h374v-86z" />
    <glyph glyph-name="braceleft" unicode="{" horiz-adv-x="228" 
d="M142 410q-2 -21 -5.5 -40.5t-20.5 -33.5q17 -15 20.5 -34.5t5.5 -40.5l1 -213q0 -11 1 -21.5t4 -19t9.5 -13.5t17.5 -5l33 -1v-88h-33q-51 0 -84 29t-38 92l-1 217q-1 23 -5.5 35t-26.5 12v101q23 0 27 12t5 36q0 48 0.5 97.5t0.5 99.5q5 63 38 92t84 29h33v-88l-33 -1
q-12 0 -19 -6.5t-10 -16.5t-3.5 -21.5t-0.5 -20.5v-188v0z" />
    <glyph glyph-name="bar" unicode="|" horiz-adv-x="128" 
d="M108 -100h-88v926h88v-926z" />
    <glyph glyph-name="braceright" unicode="}" horiz-adv-x="228" 
d="M86 598q0 9 -0.5 20.5t-3.5 21.5t-10 16.5t-19 6.5l-33 1v88h33q51 0 84 -29t38 -92q0 -50 0.5 -99.5t0.5 -97.5q1 -24 5 -36t27 -12v-101q-22 0 -26.5 -12t-5.5 -35l-1 -217q-5 -63 -38 -92t-84 -29h-33v88l33 1q11 0 17.5 5t9.5 13.5t4 19t1 21.5l1 213q2 21 5.5 40.5
t20.5 34.5q-17 14 -20.5 33.5t-5.5 40.5v188z" />
    <glyph glyph-name="exclamdown" unicode="&#xa1;" horiz-adv-x="156" 
d="M136 543q0 -26 -15.5 -42t-41.5 -16t-42.5 16t-16.5 42t16.5 42t42.5 16t41.5 -16t15.5 -42zM134 -100h-110v503h110v-503z" />
    <glyph glyph-name="cent" unicode="&#xa2;" horiz-adv-x="466" 
d="M434 86q-27 -32 -65 -55t-81 -31v-98h-89v100q-45 9 -78.5 33.5t-56 59.5t-33.5 76.5t-11 85.5q0 45 11 87t33.5 76.5t56 59t78.5 33.5v87h89v-86q45 -9 85 -35t73 -64l-74 -65q-47 57 -84 69v-324q39 16 84 70l73 -65zM120 257q0 -49 19 -93.5t60 -63.5v314
q-21 -9 -35.5 -25.5t-24.5 -37.5t-14.5 -45t-4.5 -49z" />
    <glyph glyph-name="sterling" unicode="&#xa3;" horiz-adv-x="475" 
d="M74 325q-13 20 -21 44.5t-8 54.5q0 78 51 127t146 49q66 0 117 -27t96 -85l-76 -72q-54 85 -140 85q-48 0 -69.5 -19t-21.5 -50q0 -26 10.5 -48.5t27.5 -44.5l12 -14h195v-94h-144q2 -5 2 -11.5v-13.5q0 -32 -11.5 -56.5t-28.5 -43.5h243v-106h-432v85q55 23 92.5 51
t37.5 66q0 8 -2 15t-5 14h-125v94h54z" />
    <glyph glyph-name="yen" unicode="&#xa5;" horiz-adv-x="521" 
d="M211 0v101h-138v94h138v54h-138v95h92q-17 29 -36 62.5t-37.5 67t-37 66t-34.5 60.5h120l122 -217l121 217h118l-147 -256h93v-95h-138v-54h138v-94h-138v-101h-98z" />
    <glyph glyph-name="brokenbar" unicode="&#xa6;" horiz-adv-x="125" 
d="M20 432v267h85v-267h-85zM20 -1v267h85v-267h-85z" />
    <glyph glyph-name="section" unicode="&#xa7;" horiz-adv-x="400" 
d="M380 346q0 -29 -15 -56t-36 -45q18 -18 26.5 -42.5t8.5 -51.5q0 -37 -14.5 -65t-38.5 -47t-55.5 -29t-66.5 -10q-42 0 -82.5 9t-86.5 31l38 76q24 -9 42 -15.5t33 -10t29 -5t29 -1.5q37 0 58 15t21 51q0 16 -9 28t-24 21t-34 16t-38 13q-26 8 -51 17t-45 23.5t-32.5 36
t-12.5 53.5q0 38 13 64.5t36 44.5q-33 33 -33 84q0 39 15 67t40 46t56.5 26t64.5 8q37 0 73 -12.5t77 -29.5l-32 -86q-38 23 -63 34.5t-54 11.5q-35 0 -59.5 -13.5t-24.5 -48.5q0 -17 26.5 -29t59.5 -23q26 -8 54.5 -19.5t52 -29.5t39 -44t15.5 -63zM286 345q0 15 -7 25.5
t-18.5 18t-26.5 12t-32 9.5h1l-35 9q-21 -5 -36 -18t-15 -40q0 -10 7.5 -17t19.5 -13t27 -11l30 -10q9 -3 19.5 -6t18.5 -6q20 8 33.5 20t13.5 27z" />
    <glyph glyph-name="dieresis" unicode="&#xa8;" horiz-adv-x="305" 
d="M20 642q0 26 15.5 42t41.5 16t42.5 -16t16.5 -42t-16.5 -42t-42.5 -16t-41.5 16t-15.5 42zM169 642q0 26 15.5 42t41.5 16t42.5 -16t16.5 -42t-16.5 -42t-42.5 -16t-41.5 16t-15.5 42z" />
    <glyph glyph-name="copyright" unicode="&#xa9;" horiz-adv-x="718" 
d="M606 361q0 49 -18.5 94.5t-51.5 81t-78.5 56.5t-99.5 21q-53 0 -98 -21t-77.5 -56t-51 -80.5t-18.5 -95.5q0 -49 18.5 -94.5t51 -81t77.5 -56.5t98 -21q54 0 99.5 21t78.5 56t51.5 80.5t18.5 95.5zM698 362q0 -69 -23 -130.5t-67 -108t-107 -74t-143 -27.5
q-79 0 -141.5 27.5t-106 74t-67 108t-23.5 130.5t23.5 130t67 107.5t106 73.5t141.5 27q80 0 143 -27t107 -73.5t67 -107.5t23 -130zM524 207q-32 -34 -72 -53t-97 -19q-55 0 -96 19.5t-68 51t-40.5 72.5t-13.5 84q0 48 14.5 89.5t42.5 72t68.5 48t91.5 17.5q54 0 98 -22.5
t79 -62.5l-63 -63q-26 29 -53.5 45.5t-58.5 16.5q-32 0 -55.5 -11t-38.5 -30t-22.5 -44.5t-7.5 -53.5q0 -27 7.5 -52.5t23.5 -45.5t39 -32t55 -12q29 0 60 15t60 47l59 -64z" />
    <glyph glyph-name="ordfeminine" unicode="&#xaa;" horiz-adv-x="360" 
d="M262.533 462.737q-18.5059 6.93457 -38.9385 8.47656q-20.4326 1.54102 -42.0225 1.54102q-15.4209 0 -30.0713 -2.69727t-26.6016 -8.86133q-11.9512 -6.16504 -19.2764 -17.3379q-7.3252 -11.1738 -7.3252 -27.3555q0 -22.3467 18.5059 -33.9053
q18.5049 -11.5586 52.4316 -11.5586q26.9873 0 51.6611 10.7881t41.6367 33.1348v47.7754zM262.533 304v18.4941q-21.5898 -15.4121 -47.4199 -18.8799q-25.8311 -3.4668 -56.6729 -3.4668q-29.2998 0 -54.7451 7.32031t-43.9502 21.9609q-18.5059 14.6406 -28.915 36.2168
t-10.4092 50.0869q0 33.1348 12.3369 58.1777q12.3369 25.0439 33.1553 41.6113q20.8193 16.5664 48.5771 24.6582q27.7578 8.09082 57.8291 8.09082q24.6738 0 46.6494 -0.770508q21.9746 -0.770508 43.5645 -6.93555v9.24707q0 33.9053 -21.5898 52.0137t-59.3711 18.1084
q-12.3369 0 -23.1318 -1.54102q-10.7949 -1.54199 -20.8184 -6.16504q-10.0244 -4.62305 -20.0479 -13.4854q-10.0234 -8.86133 -21.5898 -22.7314l-57.0576 49.3164q30.0713 34.6758 63.9971 51.2432q33.9268 16.5674 80.1904 16.5674q34.6973 0 63.6123 -8.8623
q28.9141 -8.86133 49.7334 -26.1992q20.8184 -17.3379 32.3838 -43.1514q11.5664 -25.8145 11.5664 -58.9492v-251.976h-77.877z" />
    <glyph glyph-name="guillemotleft" unicode="&#xab;" horiz-adv-x="439" 
d="M163 64l-143 171l143 171h108l-136 -171q15 -19 33 -41.5l36 -45t35.5 -44.5t31.5 -40h-108zM311 64l-142 171l142 171h108l-136 -171q15 -19 33 -41.5l36 -45t35.5 -44.5t31.5 -40h-108z" />
    <glyph glyph-name="logicalnot" unicode="&#xac;" horiz-adv-x="473" 
d="M363 106v165h-343v92h433v-257h-90z" />
    <glyph glyph-name="registered" unicode="&#xae;" horiz-adv-x="718" 
d="M698 346q0 -69 -23 -130.5t-67 -108t-107 -74t-143 -27.5q-79 0 -141.5 27.5t-106 74t-67 108t-23.5 130.5t23.5 130t67 107.5t106 73.5t141.5 27q80 0 143 -27t107 -73.5t67 -107.5t23 -130zM607 345q0 49 -18.5 94.5t-52 81t-79 56.5t-99.5 21q-37 0 -70 -10.5
t-61 -28.5h140q31 0 59.5 -7.5t50 -24t34 -41.5t12.5 -60q0 -49 -19.5 -76t-49.5 -39q8 -17 17.5 -34.5t20.5 -36.5l42 -74q34 35 53.5 81.5t19.5 97.5zM112 345q0 -60 27 -114.5t75 -90.5v410q-48 -35 -75 -89.5t-27 -115.5zM220 136q29 -21 64 -32.5t74 -11.5
q40 0 75.5 11.5t64.5 32.5h-59l-83 153h-40v-153h-96zM426 426q-1 20 -17.5 28.5t-43.5 8.5h-49v-75h44q30 0 48.5 11.5t17.5 26.5z" />
    <glyph glyph-name="macron" unicode="&#xaf;" horiz-adv-x="310" 
d="M20 606v93h270v-93h-270z" />
    <glyph glyph-name="degree" unicode="&#xb0;" horiz-adv-x="270" 
d="M165 594q0 14 -7 24t-23 10q-15 0 -21 -10t-6 -24t6 -22.5t21 -8.5q30 0 30 31zM250 594q0 -45 -29 -77.5t-86 -32.5q-26 0 -47.5 9t-36.5 24t-23 35t-8 42q0 48 31 79t84 31q57 0 86 -31.5t29 -78.5z" />
    <glyph glyph-name="plusminus" unicode="&#xb1;" horiz-adv-x="485" 
d="M192 95v123h-172v97h172v123h98v-123h175v-97h-175v-123h-98zM20 0v88h445v-88h-445z" />
    <glyph glyph-name="twosuperior" unicode="&#xb2;" horiz-adv-x="496" 
d="M32 98l207 218v-1q17 19 36 41.5t35.5 45.5t27 47t10.5 46q0 46 -31 78.5t-86 32.5q-42 0 -73 -26.5t-47 -73.5l-91 74q32 60 88 96.5t123 36.5q52 0 93.5 -16.5t70.5 -45.5t44.5 -70t15.5 -89q0 -33 -12.5 -65.5t-31 -63t-41 -58t-43.5 -49.5l-92 -100l-49 -54h290v-102
h-444v98z" />
    <glyph glyph-name="threesuperior" unicode="&#xb3;" horiz-adv-x="500" 
d="M480 198q0 -50 -19.5 -88.5t-52.5 -64t-77 -38.5t-93 -13q-65 0 -115.5 23t-102.5 74l83 69q29 -38 64 -54.5t71 -16.5q63 0 100 29t37 80q0 56 -45 89.5t-126 33.5h-40v101h42q60 0 99.5 24.5t39.5 72.5q0 38 -31.5 62.5t-78.5 24.5q-42 0 -71.5 -16t-57.5 -49l-79 65
q45 48 92.5 71.5t114.5 23.5q46 0 85.5 -11.5t68.5 -34t46 -56.5t17 -79q0 -47 -20.5 -82.5t-54.5 -57.5q45 -23 74.5 -71t29.5 -111z" />
    <glyph glyph-name="acute" unicode="&#xb4;" horiz-adv-x="232" 
d="M20 587l93 113h99l-94 -113h-98z" />
    <glyph glyph-name="mu" unicode="&#xb5;" horiz-adv-x="392" 
d="M281 0l-6 31q-17 -14 -40 -24.5t-52 -10.5q-18 0 -35.5 4.5t-32.5 10.5v-167h-95v654h95v-304q0 -23 2.5 -43t10 -34.5t21 -22.5t35.5 -8q13 0 25 7.5t22.5 19t18.5 25.5t13 26v334h97v-379q0 -19 3.5 -48t8.5 -71h-91z" />
    <glyph glyph-name="paragraph" unicode="&#xb6;" horiz-adv-x="416" 
d="M298 0v598h-29v-598h-98v378q-44 5 -73.5 20.5t-46.5 37.5t-24 47.5t-7 50.5q0 27 7 56.5t27 53.5t56.5 39.5t95.5 15.5h190v-699h-98z" />
    <glyph glyph-name="periodcentered" unicode="&#xb7;" horiz-adv-x="163" 
d="M20 58q0 27 17 44.5t44 17.5t44.5 -17.5t17.5 -44.5t-17.5 -44t-44.5 -17t-44 17t-17 44z" />
    <glyph glyph-name="cedilla" unicode="&#xb8;" horiz-adv-x="255" 
d="M110 -155q-20 0 -43.5 7.5t-46.5 19.5l28 78q15 -9 31.5 -16t29.5 -7q18 0 30.5 11t12.5 37q0 27 -12 72h82q5 -18 9 -38.5t4 -37.5q0 -60 -34 -93t-91 -33z" />
    <glyph glyph-name="onesuperior" unicode="&#xb9;" horiz-adv-x="98" 
d="M20.4854 300v381.779l58.0029 21.21v-402.989h-58.0029z" />
    <glyph glyph-name="ordmasculine" unicode="&#xba;" horiz-adv-x="406" 
d="M303.039 494.781q0 27.9844 -5.45117 51.6934t-17.5215 41.1992q-12.0713 17.4902 -31.54 27.5957t-46.7246 10.1055t-45.9463 -9.7168q-18.6895 -9.7168 -30.7598 -27.207q-12.0713 -17.4902 -17.5225 -41.1992t-5.45117 -51.6934q0 -27.207 5.45117 -51.3047
t17.5225 -41.5879q12.0703 -17.4902 30.7598 -27.5957q18.6904 -10.1055 45.9463 -10.1055t46.7246 9.7168t31.54 27.207q12.0703 17.4902 17.5215 41.1992t5.45117 51.6934zM385.586 494.004q0 -41.1992 -11.291 -77.3457q-11.292 -36.1465 -34.2656 -62.9648
q-22.9727 -26.8184 -57.627 -41.9766t-80.6006 -15.1582t-79.8213 15.5469q-33.876 15.5469 -56.8486 42.7539q-22.9736 27.207 -34.2646 63.7422q-11.292 36.5352 -11.292 77.7344q0 41.9766 11.292 78.123q11.291 36.1465 34.2646 62.9648
q22.9727 26.8184 56.8486 41.9766q33.875 15.1582 79.8213 15.1582t80.6006 -15.5469t57.627 -42.7539q22.9736 -27.207 34.2656 -63.7422q11.291 -36.5352 11.291 -78.5117z" />
    <glyph glyph-name="guillemotright" unicode="&#xbb;" horiz-adv-x="451" 
d="M285 409l146 -175l-146 -175h-112l126 175l-43 59l-83 116h112zM140 409l147 -175l-147 -175h-112l126 175l-70 98l-25 37l-39 40h120z" />
    <glyph glyph-name="onequarter" unicode="&#xbc;" horiz-adv-x="540" 
d="M20.4854 300v381.779l58.0029 21.21v-402.989h-58.0029zM21 0l263 685h93l-263 -685h-93zM427.45 0.574219v104.598h-178.942v42.5273l188.148 256.895h49.4824v-240.228h33.3721v-59.1943h-33.3721v-104.598h-58.6885zM427.45 164.366v32.7588
q0 15.5166 -0.288086 31.0332q-0.287109 15.5176 -0.287109 31.8965v35.3447l-94.3623 -131.033h94.9375z" />
    <glyph glyph-name="onehalf" unicode="&#xbd;" horiz-adv-x="583" 
d="M313.965 54.9814l116.21 122.306v-0.560547q9.54395 10.6592 20.2109 23.2822q10.666 12.624 19.9297 25.5273q9.2627 12.9033 15.1572 26.3682t5.89453 25.8086q0 25.8066 -17.4033 44.041q-17.4033 18.2334 -48.2803 18.2334q-23.5791 0 -40.9824 -14.8672
q-17.4033 -14.8682 -26.3857 -41.2363l-51.0869 41.5166q17.9648 33.6621 49.4023 54.1396q31.4395 20.4775 69.0527 20.4775q29.1934 0 52.4912 -9.25684t39.5791 -25.5264q16.2803 -16.2705 24.9824 -39.2734q8.70117 -23.002 8.70117 -49.9316
q0 -18.5137 -7.01758 -36.748q-7.01758 -18.2334 -17.4033 -35.3447q-10.3857 -17.1123 -23.0176 -32.54q-12.6318 -15.4287 -24.4209 -27.7715l-51.6484 -56.1035l-27.5088 -30.2959h162.806v-57.2256h-249.262v54.9814zM20.4854 300v381.779l58.0029 21.21v-402.989
h-58.0029zM21 0l263 685h93l-263 -685h-93z" />
    <glyph glyph-name="threequarters" unicode="&#xbe;" horiz-adv-x="700" 
d="M281.344 415.306q0 -28.3604 -11.0645 -50.1973q-11.0635 -21.8369 -29.7871 -36.3008t-43.6885 -21.8369q-24.9648 -7.37402 -52.7666 -7.37402q-36.8799 0 -65.5332 13.0459q-28.6523 13.0449 -58.1562 41.9727l47.0928 39.1367q16.4541 -21.5537 36.3125 -30.9121
q19.8584 -9.35938 40.2842 -9.35938q35.7451 0 56.7383 16.4492q20.9932 16.4482 20.9932 45.376q0 31.7627 -25.5322 50.7646q-25.5322 19.001 -71.4902 19.001h-22.6953v57.2871h23.8301q34.043 0 56.4551 13.8965q22.4111 13.8965 22.4111 41.1221
q0 21.5537 -17.8721 35.4492q-17.873 13.8965 -44.54 13.8965q-23.8301 0 -40.5674 -9.0752q-16.7383 -9.0752 -32.625 -27.792l-44.8232 36.8672q25.5322 27.2256 52.4834 40.5547q26.9502 13.3301 64.9648 13.3301q26.0996 0 48.5117 -6.52344
q22.4111 -6.52246 38.8652 -19.2842q16.4541 -12.7627 26.0996 -32.0469q9.64551 -19.2852 9.64551 -44.8096q0 -26.6582 -11.6318 -46.7939q-11.6309 -20.1348 -30.9219 -32.6133q25.5322 -13.0459 42.2695 -40.2715q16.7383 -27.2256 16.7383 -62.959zM181 0l263 685h93
l-263 -685h-93zM587.45 0.574219v104.598h-178.942v42.5273l188.148 256.895h49.4824v-240.228h33.3721v-59.1943h-33.3721v-104.598h-58.6885zM587.45 164.366v32.7588q0 15.5166 -0.288086 31.0332q-0.287109 15.5176 -0.287109 31.8965v35.3447l-94.3623 -131.033
h94.9375z" />
    <glyph glyph-name="questiondown" unicode="&#xbf;" horiz-adv-x="426" 
d="M280 515q0 -26 -15.5 -42t-41.5 -16t-42 16t-16 42t16 42t42 16t41.5 -16t15.5 -42zM181 400h84l4 -163q-39 -24 -67 -44t-46 -38.5t-26 -37.5t-8 -41q0 -43 27 -64.5t69 -21.5q36 0 65 16.5t57 48.5l66 -66q-42 -44 -87 -66.5t-106 -22.5q-37 0 -71.5 10t-61.5 31
t-43.5 54t-16.5 79q0 38 13.5 68.5t36 55.5t51 45.5t57.5 39.5z" />
    <glyph glyph-name="Agrave" unicode="&#xc0;" horiz-adv-x="642" 
d="M431 201h-220l-71 -201h-120l250 700h102l250 -700h-120zM249 308h143q-10 29 -18.5 52t-16.5 45.5t-16.5 46.5t-19.5 56zM319 787l-94 113h99l93 -113h-98z" />
    <glyph glyph-name="Aacute" unicode="&#xc1;" horiz-adv-x="642" 
d="M431 201h-220l-71 -201h-120l250 700h102l250 -700h-120zM249 308h143q-10 29 -18.5 52t-16.5 45.5t-16.5 46.5t-19.5 56zM225 787l93 113h99l-94 -113h-98z" />
    <glyph glyph-name="Acircumflex" unicode="&#xc2;" horiz-adv-x="642" 
d="M431 201h-220l-71 -201h-120l250 700h102l250 -700h-120zM249 308h143q-10 29 -18.5 52t-16.5 45.5t-16.5 46.5t-19.5 56zM178 787l93 113h99l93 -113h-98l-44 53l-45 -53h-98z" />
    <glyph glyph-name="Atilde" unicode="&#xc3;" horiz-adv-x="642" 
d="M431 201h-220l-71 -201h-120l250 700h102l250 -700h-120zM249 308h143q-10 29 -18.5 52t-16.5 45.5t-16.5 46.5t-19.5 56zM495 822q-21 -14 -36 -23t-28 -15t-25 -8.5t-26 -2.5q-18 0 -31.5 5t-33.5 14h1q-27 13 -37 16t-20 3q-11 0 -17 -3.5t-23 -15.5l-25 -19l-47 69
q28 28 53.5 42t59.5 14q29 0 75 -20q18 -8 28 -12t19 -4q11 0 30 9.5t34 20.5z" />
    <glyph glyph-name="Adieresis" unicode="&#xc4;" horiz-adv-x="642" 
d="M431 201h-220l-71 -201h-120l250 700h102l250 -700h-120zM249 308h143q-10 29 -18.5 52t-16.5 45.5t-16.5 46.5t-19.5 56zM188 842q0 26 15.5 42t41.5 16t42.5 -16t16.5 -42t-16.5 -42t-42.5 -16t-41.5 16t-15.5 42zM337 842q0 26 15.5 42t41.5 16t42.5 -16t16.5 -42
t-16.5 -42t-42.5 -16t-41.5 16t-15.5 42z" />
    <glyph glyph-name="Aring" unicode="&#xc5;" horiz-adv-x="642" 
d="M431 201h-220l-71 -201h-120l250 700h102l250 -700h-120zM249 308h143q-10 29 -18.5 52t-16.5 45.5t-16.5 46.5t-19.5 56zM357 794q0 16 -8.5 28t-27.5 12t-26.5 -11.5t-7.5 -28.5q0 -16 7.5 -27.5t26.5 -11.5t27.5 11t8.5 28zM433 794q0 -45 -28.5 -76.5t-83.5 -31.5
q-54 0 -83 31.5t-29 76.5t29 76t83 31q55 0 83.5 -31t28.5 -76z" />
    <glyph glyph-name="AE" unicode="&#xc6;" horiz-adv-x="874" 
d="M465 0v274h-160l-162 -274h-123l411 700h395v-99h-256v-230h230v-97h-230v-176h284v-98h-389zM465 566l-103 -196h103v196z" />
    <glyph glyph-name="Ccedilla" unicode="&#xc7;" horiz-adv-x="612" 
d="M268 -155q-20 0 -43.5 7.5t-46.5 19.5l28 78q15 -9 31.5 -16t29.5 -7q18 0 30.5 11t12.5 37q0 5 -0.5 10.5t-1.5 11.5q-74 4 -128 36t-89.5 81.5t-53 112t-17.5 127.5q0 69 18.5 133t57 113.5t97.5 79t139 29.5q85 0 147.5 -34t112.5 -93l-79 -70q-43 53 -86.5 71
t-92.5 18q-53 0 -92 -20.5t-64.5 -55t-37.5 -79.5t-12 -93t12 -93t37.5 -80t64.5 -56t92 -21q49 0 93 19.5t86 72.5l79 -70q-40 -48 -89.5 -80.5t-112.5 -43.5q3 -15 3 -30q0 -60 -34 -93t-91 -33z" />
    <glyph glyph-name="Egrave" unicode="&#xc8;" horiz-adv-x="475" 
d="M20 0v700h432v-108h-324v-175h295v-108h-295v-201h327v-108h-435zM235 783l-94 113h99l93 -113h-98z" />
    <glyph glyph-name="Eacute" unicode="&#xc9;" horiz-adv-x="475" 
d="M20 0v700h432v-108h-324v-175h295v-108h-295v-201h327v-108h-435zM141 783l93 113h99l-94 -113h-98z" />
    <glyph glyph-name="Ecircumflex" unicode="&#xca;" horiz-adv-x="475" 
d="M20 0v700h432v-108h-324v-175h295v-108h-295v-201h327v-108h-435zM95 787l93 113h99l93 -113h-98l-44 53l-45 -53h-98z" />
    <glyph glyph-name="Edieresis" unicode="&#xcb;" horiz-adv-x="475" 
d="M20 0v700h432v-108h-324v-175h295v-108h-295v-201h327v-108h-435zM105 842q0 26 15.5 42t41.5 16t42.5 -16t16.5 -42t-16.5 -42t-42.5 -16t-41.5 16t-15.5 42zM254 842q0 26 15.5 42t41.5 16t42.5 -16t16.5 -42t-16.5 -42t-42.5 -16t-41.5 16t-15.5 42z" />
    <glyph glyph-name="Igrave" unicode="&#xcc;" horiz-adv-x="148" 
d="M20 0v700h108v-700h-108zM43 787l-94 113h99l93 -113h-98z" />
    <glyph glyph-name="Iacute" unicode="&#xcd;" horiz-adv-x="148" 
d="M20 0v700h108v-700h-108zM19 787l93 113h99l-94 -113h-98z" />
    <glyph glyph-name="Icircumflex" unicode="&#xce;" horiz-adv-x="148" 
d="M20 0v700h108v-700h-108zM-67 787l93 113h99l93 -113h-98l-44 53l-45 -53h-98z" />
    <glyph glyph-name="Idieresis" unicode="&#xcf;" horiz-adv-x="148" 
d="M20 0v700h108v-700h-108zM-57 842q0 26 15.5 42t41.5 16t42.5 -16t16.5 -42t-16.5 -42t-42.5 -16t-41.5 16t-15.5 42zM92 842q0 26 15.5 42t41.5 16t42.5 -16t16.5 -42t-16.5 -42t-42.5 -16t-41.5 16t-15.5 42z" />
    <glyph glyph-name="Ntilde" unicode="&#xd1;" horiz-adv-x="610" 
d="M502 0l-376 499v-499h-106v700h85l379 -498v498h106v-700h-88zM479 822q-21 -14 -36 -23t-28 -15t-25 -8.5t-26 -2.5q-18 0 -31.5 5t-33.5 14h1q-27 13 -37 16t-20 3q-11 0 -17 -3.5t-23 -15.5l-25 -19l-47 69q28 28 53.5 42t59.5 14q29 0 75 -20q18 -8 28 -12t19 -4
q11 0 30 9.5t34 20.5z" />
    <glyph glyph-name="Ograve" unicode="&#xd2;" horiz-adv-x="695" 
d="M566 353q0 49 -13.5 94t-41 79.5t-68.5 54.5t-96 20q-54 0 -95 -20t-68 -54t-41 -79t-14 -95t14 -95t41 -79.5t68 -55t95 -20.5q55 0 96 20t68.5 54.5t41 79.5t13.5 96zM675 354q0 -70 -20.5 -135t-62 -114.5t-103 -79.5t-142.5 -30t-142 30t-102.5 79.5t-62 114.5
t-20.5 135q0 69 20.5 133.5t62 113.5t102.5 78.5t142 29.5t142.5 -29.5t103 -78.5t62 -113.5t20.5 -133.5zM345 787l-94 113h99l93 -113h-98z" />
    <glyph glyph-name="Oacute" unicode="&#xd3;" horiz-adv-x="695" 
d="M566 353q0 49 -13.5 94t-41 79.5t-68.5 54.5t-96 20q-54 0 -95 -20t-68 -54t-41 -79t-14 -95t14 -95t41 -79.5t68 -55t95 -20.5q55 0 96 20t68.5 54.5t41 79.5t13.5 96zM675 354q0 -70 -20.5 -135t-62 -114.5t-103 -79.5t-142.5 -30t-142 30t-102.5 79.5t-62 114.5
t-20.5 135q0 69 20.5 133.5t62 113.5t102.5 78.5t142 29.5t142.5 -29.5t103 -78.5t62 -113.5t20.5 -133.5zM251 787l93 113h99l-94 -113h-98z" />
    <glyph glyph-name="Ocircumflex" unicode="&#xd4;" horiz-adv-x="695" 
d="M566 353q0 49 -13.5 94t-41 79.5t-68.5 54.5t-96 20q-54 0 -95 -20t-68 -54t-41 -79t-14 -95t14 -95t41 -79.5t68 -55t95 -20.5q55 0 96 20t68.5 54.5t41 79.5t13.5 96zM675 354q0 -70 -20.5 -135t-62 -114.5t-103 -79.5t-142.5 -30t-142 30t-102.5 79.5t-62 114.5
t-20.5 135q0 69 20.5 133.5t62 113.5t102.5 78.5t142 29.5t142.5 -29.5t103 -78.5t62 -113.5t20.5 -133.5zM205 787l93 113h99l93 -113h-98l-44 53l-45 -53h-98z" />
    <glyph glyph-name="Otilde" unicode="&#xd5;" horiz-adv-x="695" 
d="M566 353q0 49 -13.5 94t-41 79.5t-68.5 54.5t-96 20q-54 0 -95 -20t-68 -54t-41 -79t-14 -95t14 -95t41 -79.5t68 -55t95 -20.5q55 0 96 20t68.5 54.5t41 79.5t13.5 96zM675 354q0 -70 -20.5 -135t-62 -114.5t-103 -79.5t-142.5 -30t-142 30t-102.5 79.5t-62 114.5
t-20.5 135q0 69 20.5 133.5t62 113.5t102.5 78.5t142 29.5t142.5 -29.5t103 -78.5t62 -113.5t20.5 -133.5zM521 822q-21 -14 -36 -23t-28 -15t-25 -8.5t-26 -2.5q-18 0 -31.5 5t-33.5 14h1q-27 13 -37 16t-20 3q-11 0 -17 -3.5t-23 -15.5l-25 -19l-47 69q28 28 53.5 42
t59.5 14q29 0 75 -20q18 -8 28 -12t19 -4q11 0 30 9.5t34 20.5z" />
    <glyph glyph-name="Odieresis" unicode="&#xd6;" horiz-adv-x="695" 
d="M566 353q0 49 -13.5 94t-41 79.5t-68.5 54.5t-96 20q-54 0 -95 -20t-68 -54t-41 -79t-14 -95t14 -95t41 -79.5t68 -55t95 -20.5q55 0 96 20t68.5 54.5t41 79.5t13.5 96zM675 354q0 -70 -20.5 -135t-62 -114.5t-103 -79.5t-142.5 -30t-142 30t-102.5 79.5t-62 114.5
t-20.5 135q0 69 20.5 133.5t62 113.5t102.5 78.5t142 29.5t142.5 -29.5t103 -78.5t62 -113.5t20.5 -133.5zM215 842q0 26 15.5 42t41.5 16t42.5 -16t16.5 -42t-16.5 -42t-42.5 -16t-41.5 16t-15.5 42zM364 842q0 26 15.5 42t41.5 16t42.5 -16t16.5 -42t-16.5 -42t-42.5 -16
t-41.5 16t-15.5 42z" />
    <glyph glyph-name="multiply" unicode="&#xd7;" horiz-adv-x="418" 
d="M81 443l127 -126l125 127l62 -63l-125 -126l128 -125l-62 -62l-127 125l-126 -127l-63 60l126 129l-126 125z" />
    <glyph glyph-name="Oslash" unicode="&#xd8;" horiz-adv-x="695" 
d="M128 -100l53 137q-40 23 -70 57t-50.5 75.5t-30.5 88.5t-10 96q0 69 20.5 133.5t62 113.5t102.5 78.5t142 29.5q47 0 89 -11l40 102h93l-52 -135q39 -23 69 -56.5t49.5 -74t29.5 -86.5t10 -94q0 -70 -20.5 -135t-62 -114.5t-103 -79.5t-142.5 -30q-23 0 -44.5 2.5
t-41.5 7.5l-40 -105h-93zM129 353q0 -66 23 -122t69 -90l176 455q-12 2 -24.5 3.5t-25.5 1.5q-54 0 -95 -20t-68 -54t-41 -79t-14 -95zM566 353q0 63 -22.5 118t-67.5 89l-175 -453q19 -4 46 -4q55 0 96 20t68.5 54.5t41 79.5t13.5 96z" />
    <glyph glyph-name="Ugrave" unicode="&#xd9;" horiz-adv-x="608" 
d="M303 -7q-26 0 -48 3q-49 7 -91 26t-73.5 49.5t-50 72t-20.5 92.5v464h108v-453q0 -36 12.5 -62t33.5 -43.5t49 -27t60 -12.5q5 -1 7.5 -1h5.5h15h5.5t7.5 1q32 3 60.5 12.5t49.5 27t33.5 43.5t12.5 62v453h108v-464q-2 -51 -20.5 -92.5t-50 -72.5t-74 -50t-92.5 -25
l-35 -3h-13v0zM302 787l-94 113h99l93 -113h-98z" />
    <glyph glyph-name="Uacute" unicode="&#xda;" horiz-adv-x="608" 
d="M303 -7q-26 0 -48 3q-49 7 -91 26t-73.5 49.5t-50 72t-20.5 92.5v464h108v-453q0 -36 12.5 -62t33.5 -43.5t49 -27t60 -12.5q5 -1 7.5 -1h5.5h15h5.5t7.5 1q32 3 60.5 12.5t49.5 27t33.5 43.5t12.5 62v453h108v-464q-2 -51 -20.5 -92.5t-50 -72.5t-74 -50t-92.5 -25
l-35 -3h-13v0zM208 787l93 113h99l-94 -113h-98z" />
    <glyph glyph-name="Ucircumflex" unicode="&#xdb;" horiz-adv-x="608" 
d="M303 -7q-26 0 -48 3q-49 7 -91 26t-73.5 49.5t-50 72t-20.5 92.5v464h108v-453q0 -36 12.5 -62t33.5 -43.5t49 -27t60 -12.5q5 -1 7.5 -1h5.5h15h5.5t7.5 1q32 3 60.5 12.5t49.5 27t33.5 43.5t12.5 62v453h108v-464q-2 -51 -20.5 -92.5t-50 -72.5t-74 -50t-92.5 -25
l-35 -3h-13v0zM161 787l93 113h99l93 -113h-98l-44 53l-45 -53h-98z" />
    <glyph glyph-name="Udieresis" unicode="&#xdc;" horiz-adv-x="608" 
d="M303 -7q-26 0 -48 3q-49 7 -91 26t-73.5 49.5t-50 72t-20.5 92.5v464h108v-453q0 -36 12.5 -62t33.5 -43.5t49 -27t60 -12.5q5 -1 7.5 -1h5.5h15h5.5t7.5 1q32 3 60.5 12.5t49.5 27t33.5 43.5t12.5 62v453h108v-464q-2 -51 -20.5 -92.5t-50 -72.5t-74 -50t-92.5 -25
l-35 -3h-13v0zM171 842q0 26 15.5 42t41.5 16t42.5 -16t16.5 -42t-16.5 -42t-42.5 -16t-41.5 16t-15.5 42zM320 842q0 26 15.5 42t41.5 16t42.5 -16t16.5 -42t-16.5 -42t-42.5 -16t-41.5 16t-15.5 42z" />
    <glyph glyph-name="Yacute" unicode="&#xdd;" horiz-adv-x="653" 
d="M326 448l178 252h129l-252 -372l-1 -328h-108v328l-252 372h129zM230 787l93 113h99l-94 -113h-98z" />
    <glyph glyph-name="Thorn" unicode="&#xde;" horiz-adv-x="436" 
d="M416 373q0 -59 -20.5 -100.5t-55 -68t-80.5 -38.5t-98 -12h-40v-154h-102v706h102v-123h51q53 0 97.5 -12t77 -37.5t50.5 -65.5t18 -95zM314 373q0 34 -13 55.5t-33 33.5t-44 16.5t-46 4.5h-56v-226h33q27 0 55 4t51.5 16.5t38 35t14.5 60.5z" />
    <glyph glyph-name="germandbls" unicode="&#xdf;" horiz-adv-x="435" 
d="M415 186q0 -66 -25 -108.5t-65.5 -67t-90.5 -34.5t-99 -10v94q31 0 64 7t59.5 22t43.5 39.5t17 60.5q0 31 -16.5 52t-40.5 34.5t-50 21t-45 11.5l-32 7v84q22 14 31 19.5t12 7t3.5 1.5t5.5 3q13 7 25 14t20 17t13 24t5 36q0 18 -6.5 30.5t-16.5 21t-22.5 12t-23.5 3.5
q-36 0 -50 -24t-14 -83v-481h-97v470q0 51 7 90.5t25.5 66t49.5 40.5t79 14q37 0 68 -12t53 -33t34 -51t12 -66t-5.5 -59.5t-15.5 -39.5t-24.5 -26.5t-31.5 -20.5q22 -6 47.5 -17t47 -31.5t35.5 -54t14 -84.5z" />
    <glyph glyph-name="agrave" unicode="&#xe0;" horiz-adv-x="455" 
d="M334 206q-24 9 -50.5 11t-54.5 2q-20 0 -39 -3.5t-34.5 -11.5t-25 -22.5t-9.5 -35.5q0 -29 24 -44t68 -15q35 0 67 14t54 43v62zM334 0v24q-28 -20 -61.5 -24.5t-73.5 -4.5q-38 0 -71 9.5t-57 28.5t-37.5 47t-13.5 65q0 43 16 75.5t43 54t63 32t75 10.5q32 0 60.5 -1
t56.5 -9v12q0 44 -28 67.5t-77 23.5q-16 0 -30 -2t-27 -8t-26 -17.5t-28 -29.5l-74 64q39 45 83 66.5t104 21.5q45 0 82.5 -11.5t64.5 -34t42 -56t15 -76.5v-327h-101zM225 587l-94 113h99l93 -113h-98z" />
    <glyph glyph-name="aacute" unicode="&#xe1;" horiz-adv-x="455" 
d="M334 206q-24 9 -50.5 11t-54.5 2q-20 0 -39 -3.5t-34.5 -11.5t-25 -22.5t-9.5 -35.5q0 -29 24 -44t68 -15q35 0 67 14t54 43v62zM334 0v24q-28 -20 -61.5 -24.5t-73.5 -4.5q-38 0 -71 9.5t-57 28.5t-37.5 47t-13.5 65q0 43 16 75.5t43 54t63 32t75 10.5q32 0 60.5 -1
t56.5 -9v12q0 44 -28 67.5t-77 23.5q-16 0 -30 -2t-27 -8t-26 -17.5t-28 -29.5l-74 64q39 45 83 66.5t104 21.5q45 0 82.5 -11.5t64.5 -34t42 -56t15 -76.5v-327h-101zM131 587l93 113h99l-94 -113h-98z" />
    <glyph glyph-name="acircumflex" unicode="&#xe2;" horiz-adv-x="455" 
d="M334 206q-24 9 -50.5 11t-54.5 2q-20 0 -39 -3.5t-34.5 -11.5t-25 -22.5t-9.5 -35.5q0 -29 24 -44t68 -15q35 0 67 14t54 43v62zM334 0v24q-28 -20 -61.5 -24.5t-73.5 -4.5q-38 0 -71 9.5t-57 28.5t-37.5 47t-13.5 65q0 43 16 75.5t43 54t63 32t75 10.5q32 0 60.5 -1
t56.5 -9v12q0 44 -28 67.5t-77 23.5q-16 0 -30 -2t-27 -8t-26 -17.5t-28 -29.5l-74 64q39 45 83 66.5t104 21.5q45 0 82.5 -11.5t64.5 -34t42 -56t15 -76.5v-327h-101zM85 587l93 113h99l93 -113h-98l-44 53l-45 -53h-98z" />
    <glyph glyph-name="atilde" unicode="&#xe3;" horiz-adv-x="455" 
d="M334 206q-24 9 -50.5 11t-54.5 2q-20 0 -39 -3.5t-34.5 -11.5t-25 -22.5t-9.5 -35.5q0 -29 24 -44t68 -15q35 0 67 14t54 43v62zM334 0v24q-28 -20 -61.5 -24.5t-73.5 -4.5q-38 0 -71 9.5t-57 28.5t-37.5 47t-13.5 65q0 43 16 75.5t43 54t63 32t75 10.5q32 0 60.5 -1
t56.5 -9v12q0 44 -28 67.5t-77 23.5q-16 0 -30 -2t-27 -8t-26 -17.5t-28 -29.5l-74 64q39 45 83 66.5t104 21.5q45 0 82.5 -11.5t64.5 -34t42 -56t15 -76.5v-327h-101zM401 622q-21 -14 -36 -23t-28 -15t-25 -8.5t-26 -2.5q-18 0 -31.5 5t-33.5 14h1q-27 13 -37 16t-20 3
q-11 0 -17 -3.5t-23 -15.5l-25 -19l-47 69q28 28 53.5 42t59.5 14q29 0 75 -20q18 -8 28 -12t19 -4q11 0 30 9.5t34 20.5z" />
    <glyph glyph-name="adieresis" unicode="&#xe4;" horiz-adv-x="455" 
d="M334 206q-24 9 -50.5 11t-54.5 2q-20 0 -39 -3.5t-34.5 -11.5t-25 -22.5t-9.5 -35.5q0 -29 24 -44t68 -15q35 0 67 14t54 43v62zM334 0v24q-28 -20 -61.5 -24.5t-73.5 -4.5q-38 0 -71 9.5t-57 28.5t-37.5 47t-13.5 65q0 43 16 75.5t43 54t63 32t75 10.5q32 0 60.5 -1
t56.5 -9v12q0 44 -28 67.5t-77 23.5q-16 0 -30 -2t-27 -8t-26 -17.5t-28 -29.5l-74 64q39 45 83 66.5t104 21.5q45 0 82.5 -11.5t64.5 -34t42 -56t15 -76.5v-327h-101zM95 642q0 26 15.5 42t41.5 16t42.5 -16t16.5 -42t-16.5 -42t-42.5 -16t-41.5 16t-15.5 42zM244 642
q0 26 15.5 42t41.5 16t42.5 -16t16.5 -42t-16.5 -42t-42.5 -16t-41.5 16t-15.5 42z" />
    <glyph glyph-name="aring" unicode="&#xe5;" horiz-adv-x="455" 
d="M339 594q0 -31 -13 -55.5t-39 -38.5q68 -13 108 -56.5t40 -116.5v-327h-101v24q-28 -20 -61.5 -24.5t-73.5 -4.5q-38 0 -71 9.5t-57 28.5t-37.5 47t-13.5 65q0 43 16 75.5t43 54t63 32t75 10.5q32 0 60.5 -1t56.5 -9v12q0 44 -28 67.5t-77 23.5q-16 0 -30 -2t-27 -8
t-26 -17.5t-28 -29.5l-74 64q28 32 58.5 52.5t67.5 28.5q-27 14 -41 39t-14 57q0 45 29 76t83 31q55 0 83.5 -31t28.5 -76zM334 206q-24 9 -50.5 11t-54.5 2q-20 0 -39 -3.5t-34.5 -11.5t-25 -22.5t-9.5 -35.5q0 -29 24 -44t68 -15q35 0 67 14t54 43v62zM263 594
q0 16 -8.5 28t-27.5 12t-26.5 -11.5t-7.5 -28.5q0 -16 7.5 -27.5t26.5 -11.5t27.5 11t8.5 28z" />
    <glyph glyph-name="ae" unicode="&#xe6;" horiz-adv-x="805" 
d="M334 0v24q-28 -20 -61.5 -24.5t-73.5 -4.5q-38 0 -71 9.5t-57 28.5t-37.5 47t-13.5 65q0 43 16 75.5t43 54t63 32t75 10.5q32 0 60.5 -1t56.5 -9v12q0 44 -28 67.5t-77 23.5q-16 0 -30 -2t-27 -8t-26 -17.5t-28 -29.5l-74 64q39 45 83 66.5t104 21.5q55 0 98.5 -17
t69.5 -50q32 34 74 50.5t90 16.5q111 0 166.5 -72t55.5 -210h-346q8 -63 44.5 -98.5t96.5 -35.5q36 0 69 15t65 50l64 -68l-11 -13q-34 -38 -80 -57.5t-111 -19.5q-85 0 -141 39v-35h-101zM334 206q-24 9 -50.5 11t-54.5 2q-20 0 -39 -3.5t-34.5 -11.5t-25 -22.5t-9.5 -35.5
q0 -29 24 -44t68 -15q35 0 67 14t54 43v62zM563 416q-55 0 -82.5 -28t-37.5 -73h238q-5 43 -34.5 72t-83.5 29z" />
    <glyph glyph-name="ccedilla" unicode="&#xe7;" horiz-adv-x="476" 
d="M200 -155q-20 0 -43.5 7.5t-46.5 19.5l28 78q15 -9 31.5 -16t29.5 -7q18 0 30.5 11t12.5 37q0 5 -0.5 10.5t-1.5 12.5q-57 3 -98.5 25t-68.5 57t-40 79.5t-13 92.5q0 53 15 99.5t44.5 81t73.5 54t102 19.5q61 0 109.5 -25.5t87.5 -68.5l-69 -68q-28 31 -59.5 50t-66.5 19
q-36 0 -61.5 -13t-41.5 -34.5t-23.5 -50.5t-7.5 -61q0 -31 7.5 -60.5t24 -52.5t42.5 -37t62 -14q34 0 68.5 16.5t66.5 51.5l62 -67l-11 -14q-25 -26 -55 -45t-68 -28q3 -17 3 -33q0 -60 -34 -93t-91 -33z" />
    <glyph glyph-name="egrave" unicode="&#xe8;" horiz-adv-x="490" 
d="M452 73q-34 -38 -80 -57.5t-111 -19.5q-61 0 -106 20.5t-75 55.5t-45 80t-15 95q0 66 18 114.5t49.5 80.5t72.5 47.5t88 15.5q111 0 166.5 -72t55.5 -210h-346q8 -63 44.5 -98.5t96.5 -35.5q36 0 69 15t65 50l64 -68zM248 416q-55 0 -82.5 -28t-37.5 -73h238
q-5 43 -34.5 72t-83.5 29zM243 587l-94 113h99l93 -113h-98z" />
    <glyph glyph-name="eacute" unicode="&#xe9;" horiz-adv-x="490" 
d="M452 73q-34 -38 -80 -57.5t-111 -19.5q-61 0 -106 20.5t-75 55.5t-45 80t-15 95q0 66 18 114.5t49.5 80.5t72.5 47.5t88 15.5q111 0 166.5 -72t55.5 -210h-346q8 -63 44.5 -98.5t96.5 -35.5q36 0 69 15t65 50l64 -68zM248 416q-55 0 -82.5 -28t-37.5 -73h238
q-5 43 -34.5 72t-83.5 29zM149 587l93 113h99l-94 -113h-98z" />
    <glyph glyph-name="ecircumflex" unicode="&#xea;" horiz-adv-x="490" 
d="M452 73q-34 -38 -80 -57.5t-111 -19.5q-61 0 -106 20.5t-75 55.5t-45 80t-15 95q0 66 18 114.5t49.5 80.5t72.5 47.5t88 15.5q111 0 166.5 -72t55.5 -210h-346q8 -63 44.5 -98.5t96.5 -35.5q36 0 69 15t65 50l64 -68zM248 416q-55 0 -82.5 -28t-37.5 -73h238
q-5 43 -34.5 72t-83.5 29zM102 587l93 113h99l93 -113h-98l-44 53l-45 -53h-98z" />
    <glyph glyph-name="edieresis" unicode="&#xeb;" horiz-adv-x="490" 
d="M452 73q-34 -38 -80 -57.5t-111 -19.5q-61 0 -106 20.5t-75 55.5t-45 80t-15 95q0 66 18 114.5t49.5 80.5t72.5 47.5t88 15.5q111 0 166.5 -72t55.5 -210h-346q8 -63 44.5 -98.5t96.5 -35.5q36 0 69 15t65 50l64 -68zM248 416q-55 0 -82.5 -28t-37.5 -73h238
q-5 43 -34.5 72t-83.5 29zM112 642q0 26 15.5 42t41.5 16t42.5 -16t16.5 -42t-16.5 -42t-42.5 -16t-41.5 16t-15.5 42zM261 642q0 26 15.5 42t41.5 16t42.5 -16t16.5 -42t-16.5 -42t-42.5 -16t-41.5 16t-15.5 42z" />
    <glyph glyph-name="igrave" unicode="&#xec;" horiz-adv-x="156" 
d="M130 0v500h-102v-500h102zM36 587l-94 113h99l93 -113h-98z" />
    <glyph glyph-name="iacute" unicode="&#xed;" horiz-adv-x="156" 
d="M130 0v500h-102v-500h102zM32 587l93 113h99l-94 -113h-98z" />
    <glyph glyph-name="icircumflex" unicode="&#xee;" horiz-adv-x="156" 
d="M130 0v500h-102v-500h102zM-64 587l93 113h99l93 -113h-98l-44 53l-45 -53h-98z" />
    <glyph glyph-name="idieresis" unicode="&#xef;" horiz-adv-x="156" 
d="M28 0v500h102v-500h-102zM-54 642q0 26 15.5 42t41.5 16t42.5 -16t16.5 -42t-16.5 -42t-42.5 -16t-41.5 16t-15.5 42zM95 642q0 26 15.5 42t41.5 16t42.5 -16t16.5 -42t-16.5 -42t-42.5 -16t-41.5 16t-15.5 42z" />
    <glyph glyph-name="ntilde" unicode="&#xf1;" horiz-adv-x="465" 
d="M344 0v315q0 50 -29 74t-73 24q-21 0 -42.5 -9t-39 -23t-28 -30.5t-10.5 -30.5v-320h-102v501h102v-36q24 20 58 32t76 12q39 0 73.5 -11.5t60 -34.5t40.5 -57t15 -78v-328h-101zM406 622q-21 -14 -36 -23t-28 -15t-25 -8.5t-26 -2.5q-18 0 -31.5 5t-33.5 14h1
q-27 13 -37 16t-20 3q-11 0 -17 -3.5t-23 -15.5l-25 -19l-47 69q28 28 53.5 42t59.5 14q29 0 75 -20q18 -8 28 -12t19 -4q11 0 30 9.5t34 20.5z" />
    <glyph glyph-name="ograve" unicode="&#xf2;" 
d="M384 248q0 36 -7 66.5t-22.5 53t-40.5 35.5t-60 13t-59 -12.5t-39.5 -35t-22.5 -53t-7 -66.5q0 -35 7 -66t22.5 -53.5t39.5 -35.5t59 -13t60 12.5t40.5 35t22.5 53t7 66.5zM490 247q0 -53 -14.5 -99.5t-44 -81t-74 -54t-103.5 -19.5t-102.5 20t-73 55t-44 82t-14.5 100
q0 54 14.5 100.5t44 81t73 54t102.5 19.5t103.5 -20t74 -55t44 -82t14.5 -101zM253 587l-94 113h99l93 -113h-98z" />
    <glyph glyph-name="oacute" unicode="&#xf3;" 
d="M384 248q0 36 -7 66.5t-22.5 53t-40.5 35.5t-60 13t-59 -12.5t-39.5 -35t-22.5 -53t-7 -66.5q0 -35 7 -66t22.5 -53.5t39.5 -35.5t59 -13t60 12.5t40.5 35t22.5 53t7 66.5zM490 247q0 -53 -14.5 -99.5t-44 -81t-74 -54t-103.5 -19.5t-102.5 20t-73 55t-44 82t-14.5 100
q0 54 14.5 100.5t44 81t73 54t102.5 19.5t103.5 -20t74 -55t44 -82t14.5 -101zM159 587l93 113h99l-94 -113h-98z" />
    <glyph glyph-name="ocircumflex" unicode="&#xf4;" 
d="M384 248q0 36 -7 66.5t-22.5 53t-40.5 35.5t-60 13t-59 -12.5t-39.5 -35t-22.5 -53t-7 -66.5q0 -35 7 -66t22.5 -53.5t39.5 -35.5t59 -13t60 12.5t40.5 35t22.5 53t7 66.5zM490 247q0 -53 -14.5 -99.5t-44 -81t-74 -54t-103.5 -19.5t-102.5 20t-73 55t-44 82t-14.5 100
q0 54 14.5 100.5t44 81t73 54t102.5 19.5t103.5 -20t74 -55t44 -82t14.5 -101zM112 587l93 113h99l93 -113h-98l-44 53l-45 -53h-98z" />
    <glyph glyph-name="otilde" unicode="&#xf5;" 
d="M384 248q0 36 -7 66.5t-22.5 53t-40.5 35.5t-60 13t-59 -12.5t-39.5 -35t-22.5 -53t-7 -66.5q0 -35 7 -66t22.5 -53.5t39.5 -35.5t59 -13t60 12.5t40.5 35t22.5 53t7 66.5zM490 247q0 -53 -14.5 -99.5t-44 -81t-74 -54t-103.5 -19.5t-102.5 20t-73 55t-44 82t-14.5 100
q0 54 14.5 100.5t44 81t73 54t102.5 19.5t103.5 -20t74 -55t44 -82t14.5 -101zM429 622q-21 -14 -36 -23t-28 -15t-25 -8.5t-26 -2.5q-18 0 -31.5 5t-33.5 14h1q-27 13 -37 16t-20 3q-11 0 -17 -3.5t-23 -15.5l-25 -19l-47 69q28 28 53.5 42t59.5 14q29 0 75 -20
q18 -8 28 -12t19 -4q11 0 30 9.5t34 20.5z" />
    <glyph glyph-name="odieresis" unicode="&#xf6;" 
d="M384 248q0 36 -7 66.5t-22.5 53t-40.5 35.5t-60 13t-59 -12.5t-39.5 -35t-22.5 -53t-7 -66.5q0 -35 7 -66t22.5 -53.5t39.5 -35.5t59 -13t60 12.5t40.5 35t22.5 53t7 66.5zM490 247q0 -53 -14.5 -99.5t-44 -81t-74 -54t-103.5 -19.5t-102.5 20t-73 55t-44 82t-14.5 100
q0 54 14.5 100.5t44 81t73 54t102.5 19.5t103.5 -20t74 -55t44 -82t14.5 -101zM122 642q0 26 15.5 42t41.5 16t42.5 -16t16.5 -42t-16.5 -42t-42.5 -16t-41.5 16t-15.5 42zM271 642q0 26 15.5 42t41.5 16t42.5 -16t16.5 -42t-16.5 -42t-42.5 -16t-41.5 16t-15.5 42z" />
    <glyph glyph-name="divide" unicode="&#xf7;" horiz-adv-x="167" 
d="M20 63q0 27 17.5 45.5t45.5 18.5q27 0 45.5 -18.5t18.5 -45.5q0 -28 -18.5 -45.5t-45.5 -17.5q-28 0 -45.5 17.5t-17.5 45.5zM20 435q0 27 17.5 45.5t45.5 18.5q27 0 45.5 -18.5t18.5 -45.5q0 -28 -18.5 -45.5t-45.5 -17.5q-28 0 -45.5 17.5t-17.5 45.5z" />
    <glyph glyph-name="oslash" unicode="&#xf8;" 
d="M77 -93l46 122q-53 33 -78 91.5t-25 129.5q0 54 14.5 100.5t44 81t73.5 54t103 19.5q13 0 25 -1.5t24 -3.5q9 23 18.5 47.5t17.5 45.5h93l-48 -124q54 -33 79.5 -91.5t25.5 -130.5q0 -53 -14.5 -99.5t-44 -81t-73.5 -54t-103 -19.5q-14 0 -26.5 1t-24.5 3q-8 -20 -18 -46
t-16 -44h-93zM384 248q0 40 -8 72t-27 55q-15 -39 -28.5 -75t-27 -71.5t-27.5 -72t-29 -75.5h18q35 0 59.5 12.5t40 35t22.5 53t7 66.5zM126 249q0 -38 8 -70.5t25 -55.5q15 39 28.5 74.5t27 70.5t27.5 71.5t29 75.5q-5 1 -16 1q-35 0 -59.5 -12.5t-40 -35t-22.5 -53
t-7 -66.5z" />
    <glyph glyph-name="ugrave" unicode="&#xf9;" horiz-adv-x="477" 
d="M122 500v-313q0 -25 8.5 -43.5t23.5 -31t35 -18.5t42 -6q47 0 77 18t47 44v350h102v-500h-99v28q-52 -34 -142 -34q-41 0 -76.5 11.5t-62 34t-42 56.5t-15.5 78v326h102zM236 587l-94 113h99l93 -113h-98z" />
    <glyph glyph-name="uacute" unicode="&#xfa;" horiz-adv-x="477" 
d="M122 500v-313q0 -25 8.5 -43.5t23.5 -31t35 -18.5t42 -6q47 0 77 18t47 44v350h102v-500h-99v28q-52 -34 -142 -34q-41 0 -76.5 11.5t-62 34t-42 56.5t-15.5 78v326h102zM142 587l93 113h99l-94 -113h-98z" />
    <glyph glyph-name="ucircumflex" unicode="&#xfb;" horiz-adv-x="477" 
d="M122 500v-313q0 -25 8.5 -43.5t23.5 -31t35 -18.5t42 -6q47 0 77 18t47 44v350h102v-500h-99v28q-52 -34 -142 -34q-41 0 -76.5 11.5t-62 34t-42 56.5t-15.5 78v326h102zM96 587l93 113h99l93 -113h-98l-44 53l-45 -53h-98z" />
    <glyph glyph-name="udieresis" unicode="&#xfc;" horiz-adv-x="477" 
d="M122 500v-313q0 -25 8.5 -43.5t23.5 -31t35 -18.5t42 -6q47 0 77 18t47 44v350h102v-500h-99v28q-52 -34 -142 -34q-41 0 -76.5 11.5t-62 34t-42 56.5t-15.5 78v326h102zM106 642q0 26 15.5 42t41.5 16t42.5 -16t16.5 -42t-16.5 -42t-42.5 -16t-41.5 16t-15.5 42z
M255 642q0 26 15.5 42t41.5 16t42.5 -16t16.5 -42t-16.5 -42t-42.5 -16t-41.5 16t-15.5 42z" />
    <glyph glyph-name="yacute" unicode="&#xfd;" horiz-adv-x="547" 
d="M75 -103q19 4 44.5 12t48.5 21t39 32.5t17 45.5l-204 492h114l142 -355l141 355h110l-203 -496v1l-17 -45v1q-18 -60 -72 -102.5t-138 -52.5zM177 587l93 113h99l-94 -113h-98z" />
    <glyph glyph-name="thorn" unicode="&#xfe;" horiz-adv-x="481" 
d="M122 496q20 5 39.5 7.5t39.5 2.5q49 0 96 -14.5t83.5 -45.5t58.5 -79t22 -115q0 -56 -18 -102.5t-52 -80.5t-83 -53t-110 -19q-20 0 -38 1t-38 4v-197h-101l-1 236v690h102v-235zM356 251q0 78 -43.5 120t-117.5 42q-17 0 -36 -4t-37 -9v-300q39 -10 82 -10
q72 0 112 44.5t40 116.5z" />
    <glyph glyph-name="ydieresis" unicode="&#xff;" horiz-adv-x="547" 
d="M75 -103q19 4 44.5 12t48.5 21t39 32.5t17 45.5l-204 492h114l142 -355l141 355h110l-203 -496v1l-17 -45v1q-18 -60 -72 -102.5t-138 -52.5zM141 642q0 26 15.5 42t41.5 16t42.5 -16t16.5 -42t-16.5 -42t-42.5 -16t-41.5 16t-15.5 42zM290 642q0 26 15.5 42t41.5 16
t42.5 -16t16.5 -42t-16.5 -42t-42.5 -16t-41.5 16t-15.5 42z" />
    <glyph glyph-name="dotlessi" unicode="&#x131;" horiz-adv-x="156" 
d="M30 0v500h102v-500h-102z" />
    <glyph glyph-name="OE" unicode="&#x152;" horiz-adv-x="845" 
d="M356 0q-86 0 -149.5 28t-105 75.5t-61.5 111t-20 134.5q0 72 21.5 136t63.5 111.5t105 75.5t146 28h449v-100h-314v-184h284v-99h-284v-217h334v-100h-469zM384 602h-23q-57 0 -100.5 -19t-73 -52.5t-44 -79.5t-14.5 -101q0 -57 16.5 -103.5t46.5 -79.5t73 -51t96 -18h23
v504z" />
    <glyph glyph-name="oe" unicode="&#x153;" horiz-adv-x="854" 
d="M816 73q-34 -38 -80 -57.5t-111 -19.5q-63 0 -109.5 22t-76.5 59q-29 -39 -75 -61.5t-110 -22.5q-59 0 -102.5 20t-73 55t-44 82t-14.5 100q0 54 14.5 100.5t44 81t73 54t102.5 19.5q62 0 107.5 -22t74.5 -60q32 42 77.5 62t98.5 20q111 0 166.5 -72t55.5 -210h-345v-5
q8 -60 44 -94.5t96 -34.5q36 0 69 15t65 50l64 -68zM384 248q0 36 -7 66.5t-22.5 53t-40.5 35.5t-60 13t-59 -12.5t-39.5 -35t-22.5 -53t-7 -66.5q0 -35 7 -66t22.5 -53.5t39.5 -35.5t59 -13t59.5 12.5t40 35t23 52.5t7.5 66v1zM612 416q-55 0 -82.5 -28t-37.5 -73h238
q-5 43 -34.5 72t-83.5 29z" />
    <glyph glyph-name="Scaron" unicode="&#x160;" horiz-adv-x="542" 
d="M433 524q-28 37 -64.5 56.5t-84.5 19.5q-61 0 -89.5 -23.5t-28.5 -59.5q0 -24 12.5 -41.5t32.5 -30.5t46.5 -23.5t54.5 -20.5q37 -13 74.5 -28t67 -38t48 -57t18.5 -84q0 -48 -18.5 -85t-51 -62t-77 -38t-96.5 -13q-75 0 -137.5 28.5t-119.5 94.5l79 73
q36 -46 79.5 -72.5t100.5 -26.5q65 0 99 24.5t34 64.5q0 28 -13 47.5t-34 34t-48.5 25t-56.5 19.5q-37 13 -73.5 27t-65 36t-46 54t-17.5 81q0 37 13 71t40 60.5t69.5 42.5t102.5 16q71 0 128 -27t111 -91l-61 -57zM249 707l-121 145h106l48 -51l45 51h106l-120 -145h-64z
" />
    <glyph glyph-name="scaron" unicode="&#x161;" horiz-adv-x="425" 
d="M318 361q-20 26 -43.5 39t-55.5 13q-36 0 -51.5 -12.5t-15.5 -31.5q0 -26 28 -40t64 -25q27 -9 54.5 -19.5t50 -28t37 -44t14.5 -65.5q0 -36 -14.5 -64.5t-39.5 -48t-58.5 -29.5t-71.5 -10q-57 0 -104 23.5t-92 75.5l76 70q55 -74 123 -74q41 0 60.5 14t19.5 34
q0 16 -8 27t-21.5 19.5t-31.5 14.5t-37 12q-27 8 -54 18t-48 26.5t-34.5 42t-13.5 64.5q0 70 47.5 108t123.5 38q53 0 96.5 -21t86.5 -74l-72 -69zM351 699l-107 -128h-65l-106 128h90l49 -59l48 59h91z" />
    <glyph glyph-name="Ydieresis" unicode="&#x178;" horiz-adv-x="653" 
d="M326 448l178 252h129l-252 -372l-1 -328h-108v328l-252 372h129zM194 842q0 26 15.5 42t41.5 16t42.5 -16t16.5 -42t-16.5 -42t-42.5 -16t-41.5 16t-15.5 42zM343 842q0 26 15.5 42t41.5 16t42.5 -16t16.5 -42t-16.5 -42t-42.5 -16t-41.5 16t-15.5 42z" />
    <glyph glyph-name="Zcaron" unicode="&#x17d;" horiz-adv-x="560" 
d="M170 108h370v-108h-520v94l348 498h-328v108h476v-93zM419 895l-107 -128h-65l-106 128h90l49 -59l48 59h91z" />
    <glyph glyph-name="zcaron" unicode="&#x17e;" horiz-adv-x="428" 
d="M150 99h258v-99h-388v87l238 315h-238v98h374v-86zM353 699l-107 -128h-65l-106 128h90l49 -59l48 59h91z" />
    <glyph glyph-name="circumflex" unicode="&#x2c6;" horiz-adv-x="325" 
d="M20 587l93 113h99l93 -113h-98l-44 53l-45 -53h-98z" />
    <glyph glyph-name="caron" unicode="&#x2c7;" horiz-adv-x="318" 
d="M298 699l-107 -128h-65l-106 128h90l49 -59l48 59h91z" />
    <glyph glyph-name="breve" unicode="&#x2d8;" horiz-adv-x="266" 
d="M133 667q18 0 27 11t9 25h77q-1 -43 -30 -73.5t-83 -30.5q-52 0 -82.5 30t-29.5 74h77q1 -15 9 -25.5t26 -10.5z" />
    <glyph glyph-name="dotaccent" unicode="&#x2d9;" horiz-adv-x="163" 
d="M20 621q0 26 17 44t44 18t44.5 -18t17.5 -44q0 -27 -17.5 -44t-44.5 -17t-44 17t-17 44z" />
    <glyph glyph-name="ring" unicode="&#x2da;" horiz-adv-x="264" 
d="M168 594q0 16 -8.5 28t-27.5 12t-26.5 -11.5t-7.5 -28.5q0 -16 7.5 -27.5t26.5 -11.5t27.5 11t8.5 28zM244 594q0 -45 -28.5 -76.5t-83.5 -31.5q-54 0 -83 31.5t-29 76.5t29 76t83 31q55 0 83.5 -31t28.5 -76z" />
    <glyph glyph-name="ogonek" unicode="&#x2db;" horiz-adv-x="100" 
 />
    <glyph glyph-name="tilde" unicode="&#x2dc;" horiz-adv-x="388" 
d="M368 622q-21 -14 -36 -23t-28 -15t-25 -8.5t-26 -2.5q-18 0 -31.5 5t-33.5 14h1q-27 13 -37 16t-20 3q-11 0 -17 -3.5t-23 -15.5l-25 -19l-47 69q28 28 53.5 42t59.5 14q29 0 75 -20q18 -8 28 -12t19 -4q11 0 30 9.5t34 20.5z" />
    <glyph glyph-name="hungarumlaut" unicode="&#x2dd;" horiz-adv-x="316" 
d="M20 551l70 150h92l-71 -150h-91zM134 551l70 150h92l-71 -150h-91z" />
    <glyph glyph-name="endash" unicode="&#x2013;" horiz-adv-x="503" 
d="M20 190v88h463v-88h-463z" />
    <glyph glyph-name="emdash" unicode="&#x2014;" horiz-adv-x="706" 
d="M20 190v88h666v-88h-666z" />
    <glyph glyph-name="quoteleft" unicode="&#x2018;" horiz-adv-x="202" 
d="M20 551l70 150h92l-71 -150h-91z" />
    <glyph glyph-name="quoteright" unicode="&#x2019;" horiz-adv-x="202" 
d="M20 551l70 150h92l-71 -150h-91z" />
    <glyph glyph-name="quotesinglbase" unicode="&#x201a;" horiz-adv-x="202" 
d="M20 -21l70 150h92l-71 -150h-91z" />
    <glyph glyph-name="quotedblleft" unicode="&#x201c;" horiz-adv-x="316" 
d="M20 551l70 150h92l-71 -150h-91zM134 551l70 150h92l-71 -150h-91z" />
    <glyph glyph-name="quotedblright" unicode="&#x201d;" horiz-adv-x="316" 
d="M20 551l70 150h92l-71 -150h-91zM134 551l70 150h92l-71 -150h-91z" />
    <glyph glyph-name="quotedblbase" unicode="&#x201e;" horiz-adv-x="309" 
d="M132 -142l59 264h98l-74 -264h-83zM20 -142l60 264h98l-74 -264h-84z" />
    <glyph glyph-name="bullet" unicode="&#x2022;" horiz-adv-x="249" 
d="M20 233q0 46 29 76t75 30q45 0 75 -30t30 -76t-30 -74.5t-75 -28.5q-46 0 -75 28.5t-29 74.5z" />
    <glyph glyph-name="ellipsis" unicode="&#x2026;" horiz-adv-x="589" 
d="M20 61q0 26 17 44t44 18q26 0 44 -18t18 -44q0 -27 -18 -44t-44 -17q-27 0 -44 17t-17 44zM232 61q0 26 17 44t45 18q26 0 44 -18t18 -44q0 -27 -18 -44t-44 -17q-28 0 -45 17t-17 44zM445 61q0 26 17 44t45 18q26 0 44 -18t18 -44q0 -27 -18 -44t-44 -17q-28 0 -45 17
t-17 44z" />
    <glyph glyph-name="guilsinglleft" unicode="&#x2039;" horiz-adv-x="286" 
d="M162 63l-142 171l142 172h104l-136 -172q15 -19 33 -41.5l36 -45t35.5 -44.5t31.5 -40h-104z" />
    <glyph glyph-name="guilsinglright" unicode="&#x203a;" horiz-adv-x="280" 
d="M20 63l126 171q-14 19 -30.5 41.5l-33 45t-33 44.5t-29.5 41h98l142 -172l-142 -171h-98z" />
    <glyph glyph-name="fraction" unicode="&#x2044;" horiz-adv-x="340" 
d="M111 0h-91l209 700h91z" />
    <glyph glyph-name="Euro" unicode="&#x20ac;" horiz-adv-x="532" 
d="M502 98q-34 -48 -79 -75.5t-106 -27.5q-43 0 -77.5 14.5t-60.5 39.5t-44.5 59t-28.5 73h-86v92h72v27q0 6 -0.5 8t-0.5 3.5v3.5t1 8h-72v91h89q11 38 29.5 71.5t44.5 58.5t59.5 39.5t74.5 14.5q61 0 109 -33.5t86 -86.5l-72 -76q-31 47 -61.5 74t-59.5 27
q-36 0 -61.5 -26.5t-42.5 -62.5h156v-91h-179q-1 -6 -1 -11v-12q0 -10 -0.5 -14t0.5 -13h180v-92h-160q15 -38 42 -63.5t66 -25.5q31 0 60.5 23.5t60.5 68.5l61 -62z" />
    <glyph glyph-name="trademark" unicode="&#x2122;" horiz-adv-x="781" 
d="M220 601v-357h-107v357h-93v98h292v-98h-92zM655 246v218q-29 -54 -59.5 -112t-56.5 -106l-115 213v-213h-106v453h89l132 -243l134 243h88v-453h-106z" />
    <glyph glyph-name="minus" unicode="&#x2212;" horiz-adv-x="485" 
d="M20 208v88h445v-88h-445z" />
    <glyph glyph-name="percent" 
d="M400 109q0 15 -7 25.5t-24 10.5t-23 -10t-6 -26q0 -14 6 -23.5t23 -9.5t24 9.5t7 23.5zM483 109q0 -45 -29 -77t-85 -32q-27 0 -48 8.5t-35.5 23.5t-22.5 35t-8 42q0 47 30 78.5t84 31.5q56 0 85 -32t29 -78zM126 0h-106l364 702h106zM182 593q0 15 -7.5 25.5t-24.5 10.5
t-23.5 -10.5t-6.5 -25.5q0 -14 6.5 -23.5t23.5 -9.5t24.5 9.5t7.5 23.5zM264 593q0 -45 -29 -77t-85 -32q-26 0 -47 8.5t-36 23.5t-23 35t-8 42q0 47 30.5 78t83.5 31q56 0 85 -31.5t29 -77.5z" />
    </font>
</defs>
</svg>
